<svg width="373" height="380" viewBox="0 0 373 380" fill="none" xmlns="http://www.w3.org/2000/svg">
<g filter="url(#filter0_d_1_4329)">
<path d="M42.9763 77.27C105.158 -1.79753 219.662 -15.4864 298.73 46.695C377.797 108.876 391.486 223.381 329.305 302.449C267.123 381.516 152.619 395.205 73.5512 333.024C-5.51625 270.842 -19.2051 156.337 42.9763 77.27Z" fill="url(#paint0_linear_1_4329)"/>
<path d="M173.458 278.914C183.023 266.749 200.639 264.642 212.804 274.207C224.969 283.772 227.077 301.388 217.512 313.553C207.946 325.718 190.33 327.826 178.165 318.261C166 308.695 163.893 291.079 173.458 278.914Z" fill="url(#paint1_linear_1_4329)"/>
<path d="M27.2237 163.137C29.1822 158.047 34.2613 156.087 38.5682 158.761C42.8751 161.435 44.7788 167.729 42.8204 172.82C40.8619 177.911 35.7828 179.87 31.4759 177.196C27.169 174.522 25.2652 168.228 27.2237 163.137Z" fill="url(#paint2_linear_1_4329)"/>
<path d="M112.197 44.5777C111.279 38.7797 117.038 33.0501 125.059 31.7803C133.081 30.5105 140.327 34.1814 141.245 39.9794C142.163 45.7774 136.404 51.5069 128.383 52.7767C120.361 54.0465 113.115 50.3757 112.197 44.5777Z" fill="url(#paint3_linear_1_4329)"/>
<path d="M33.9308 277.483C36.5176 275.69 42.3644 279.649 46.99 286.324C51.6156 292.999 53.2684 299.864 50.6816 301.656C48.0948 303.449 42.248 299.491 37.6224 292.815C32.9968 286.14 31.344 279.275 33.9308 277.483Z" fill="url(#paint4_linear_1_4329)"/>
<path d="M248.585 84.8596C264.696 71.7834 290.334 76.6788 305.848 95.7938C321.362 114.909 320.879 141.005 304.768 154.081C288.656 167.157 263.019 162.262 247.505 143.147C231.991 124.032 232.474 97.9358 248.585 84.8596Z" fill="url(#paint5_linear_1_4329)"/>
<path d="M61.6734 326.302C63.2912 324.057 72.033 327.589 81.1988 334.192C90.3646 340.795 96.4836 347.968 94.8658 350.214C93.248 352.46 84.5062 348.927 75.3404 342.324C66.1746 335.721 60.0556 328.548 61.6734 326.302Z" fill="#3E404E"/>
<path d="M63.7988 323.352C66.5904 319.477 76.2838 321.688 85.4497 328.291C94.6155 334.894 99.7828 343.389 96.9912 347.264C94.1996 351.139 84.5062 348.927 75.3404 342.324C66.1746 335.721 61.0072 327.227 63.7988 323.352Z" fill="#3E404E"/>
<path d="M64.8703 331.179C65.3411 330.525 70.9266 333.744 77.346 338.369C83.7655 342.993 88.5878 347.272 88.1171 347.925C87.6464 348.579 82.0609 345.36 75.6414 340.735C69.222 336.111 64.3996 331.832 64.8703 331.179Z" fill="#111321"/>
<path d="M298.83 343.26C295.638 340.082 303.565 326.944 316.535 313.916C329.505 300.888 342.607 292.902 345.799 296.08C348.991 299.258 341.064 312.395 328.094 325.424C315.124 338.452 302.022 346.437 298.83 343.26Z" fill="url(#paint6_linear_1_4329)"/>
<path d="M294.636 339.084C289.128 333.601 295.177 318.594 308.148 305.566C321.118 292.538 336.097 286.422 341.605 291.905C347.113 297.389 341.064 312.395 328.094 325.424C315.124 338.452 300.144 344.568 294.636 339.084Z" fill="url(#paint7_linear_1_4329)"/>
<path d="M307.489 339.377C306.561 338.452 313.172 330.306 322.256 321.181C331.339 312.057 339.456 305.41 340.385 306.334C341.314 307.259 334.703 315.405 325.619 324.53C316.535 333.654 308.418 340.302 307.489 339.377Z" fill="#111321"/>
<path d="M357.53 137.496C355.348 138.474 346.804 126.001 338.447 109.638C330.09 93.2739 325.084 79.2154 327.266 78.2371C329.448 77.2589 337.992 89.7313 346.349 106.095C354.706 122.459 359.712 136.517 357.53 137.496Z" fill="url(#paint8_linear_1_4329)"/>
<path d="M354.664 138.781C350.898 140.469 341.071 128.572 332.714 112.208C324.356 95.8442 320.634 81.2103 324.399 79.5222C328.164 77.8342 337.992 89.7312 346.349 106.095C354.707 122.459 358.429 137.093 354.664 138.781Z" fill="url(#paint9_linear_1_4329)"/>
<path d="M355.149 128.871C354.514 129.155 349.254 120.095 343.401 108.635C337.548 97.1742 333.318 87.6528 333.953 87.3681C334.588 87.0835 339.847 96.1434 345.7 107.604C351.554 119.065 355.784 128.586 355.149 128.871Z" fill="#050715"/>
<path d="M203.255 5.47521C203.51 9.40155 190.725 13.4263 174.699 14.4648C158.673 15.5033 145.476 13.1623 145.221 9.23593C144.967 5.30958 157.752 1.28479 173.778 0.246295C189.803 -0.792198 203.001 1.54887 203.255 5.47521Z" fill="url(#paint10_linear_1_4329)"/>
<path d="M203.59 10.6338C204.029 17.4091 191.394 23.7434 175.368 24.7819C159.342 25.8204 145.995 21.1698 145.556 14.3946C145.117 7.61929 157.752 1.285 173.778 0.246504C189.804 -0.791989 203.151 3.85858 203.59 10.6338Z" fill="url(#paint11_linear_1_4329)"/>
<path d="M195.34 3.01397C195.414 4.15637 186.375 5.67207 175.152 6.39938C163.928 7.1267 154.769 6.7902 154.695 5.64779C154.621 4.50539 163.66 2.98968 174.883 2.26237C186.107 1.53506 195.266 1.87156 195.34 3.01397Z" fill="#060816"/>
<path d="M24.0219 100.448C26.1959 101.581 24.2097 109.692 19.5856 118.566C14.9615 127.439 9.45054 133.714 7.27655 132.581C5.10255 131.448 7.08875 123.336 11.7128 114.463C16.3369 105.59 21.8479 99.3147 24.0219 100.448Z" fill="url(#paint12_linear_1_4329)"/>
<path d="M26.878 101.936C30.6295 103.891 29.922 112.669 25.2979 121.543C20.6738 130.416 13.8841 136.024 10.1327 134.069C6.38127 132.114 7.08871 123.336 11.7128 114.463C16.3369 105.59 23.1266 99.9813 26.878 101.936Z" fill="url(#paint13_linear_1_4329)"/>
<path d="M20.1528 103.87C20.7854 104.2 18.6728 109.505 15.4343 115.72C12.1957 121.934 9.05753 126.705 8.42498 126.375C7.79242 126.046 9.90501 120.741 13.1436 114.526C16.3821 108.311 19.5203 103.541 20.1528 103.87Z" fill="#101220"/>
<path d="M144.732 164.478C153.256 159.909 163.871 163.115 168.441 171.64C173.01 180.165 169.804 190.779 161.279 195.349C152.754 199.918 142.14 196.712 137.57 188.187C133.001 179.663 136.207 169.048 144.732 164.478Z" fill="#2F313F"/>
<path d="M328.998 237.385C334.414 239.471 335.986 248.479 332.51 257.504C329.034 266.53 321.826 272.156 316.411 270.071C310.995 267.985 309.423 258.978 312.899 249.952C316.375 240.926 323.583 235.3 328.998 237.385Z" fill="#282A38"/>
<path d="M46.3913 233.087C51.506 230.346 59.3566 235.034 63.926 243.558C68.4953 252.083 68.0532 261.216 62.9384 263.958C57.8237 266.699 49.9731 262.011 45.4037 253.486C40.8344 244.962 41.2765 235.829 46.3913 233.087Z" fill="#3F414F"/>
<path d="M192.853 37.318C194.904 31.8895 203.902 30.2606 212.949 33.6798C221.997 37.099 227.668 44.2715 225.617 49.7C223.565 55.1285 214.568 56.7574 205.52 53.3382C196.473 49.919 190.801 42.7465 192.853 37.318Z" fill="#1B1D2B"/>
</g>
<defs>
<filter id="filter0_d_1_4329" x="7.62939e-06" y="1.52588e-05" width="372.281" height="380" filterUnits="userSpaceOnUse" color-interpolation-filters="sRGB">
<feFlood flood-opacity="0" result="BackgroundImageFix"/>
<feColorMatrix in="SourceAlpha" type="matrix" values="0 0 0 0 0 0 0 0 0 0 0 0 0 0 0 0 0 0 127 0" result="hardAlpha"/>
<feOffset dy="4"/>
<feGaussianBlur stdDeviation="2"/>
<feColorMatrix type="matrix" values="0 0 0 0 0 0 0 0 0 0 0 0 0 0 0 0 0 0 0.25 0"/>
<feBlend mode="normal" in2="BackgroundImageFix" result="effect1_dropShadow_1_4329"/>
<feBlend mode="normal" in="SourceGraphic" in2="effect1_dropShadow_1_4329" result="shape"/>
</filter>
<linearGradient id="paint0_linear_1_4329" x1="73.5514" y1="333.023" x2="298.73" y2="46.6948" gradientUnits="userSpaceOnUse">
<stop stop-color="#404250"/>
<stop offset="1" stop-color="#090B19"/>
</linearGradient>
<linearGradient id="paint1_linear_1_4329" x1="178.165" y1="318.261" x2="212.804" y2="274.207" gradientUnits="userSpaceOnUse">
<stop stop-color="#090B19"/>
<stop offset="1" stop-color="#3A3C4A"/>
</linearGradient>
<linearGradient id="paint2_linear_1_4329" x1="31.4756" y1="177.196" x2="41.7095" y2="160.712" gradientUnits="userSpaceOnUse">
<stop stop-color="#080A18"/>
<stop offset="1" stop-color="#4C4E5C"/>
</linearGradient>
<linearGradient id="paint3_linear_1_4329" x1="128.383" y1="52.7768" x2="125.059" y2="31.7804" gradientUnits="userSpaceOnUse">
<stop stop-color="#0F111F"/>
<stop offset="1" stop-color="#272937"/>
</linearGradient>
<linearGradient id="paint4_linear_1_4329" x1="37.6221" y1="292.815" x2="46.9897" y2="286.324" gradientUnits="userSpaceOnUse">
<stop stop-color="#161826"/>
<stop offset="1" stop-color="#4C4E5C"/>
</linearGradient>
<linearGradient id="paint5_linear_1_4329" x1="247.505" y1="143.147" x2="305.848" y2="95.7939" gradientUnits="userSpaceOnUse">
<stop stop-color="#060816"/>
<stop offset="1" stop-color="#242634"/>
</linearGradient>
<linearGradient id="paint6_linear_1_4329" x1="345.886" y1="295.096" x2="295.506" y2="341.971" gradientUnits="userSpaceOnUse">
<stop stop-color="#222432"/>
<stop offset="1" stop-color="#2B2D3B"/>
</linearGradient>
<linearGradient id="paint7_linear_1_4329" x1="340.194" y1="287.746" x2="285.977" y2="332.31" gradientUnits="userSpaceOnUse">
<stop stop-color="#222432"/>
<stop offset="1" stop-color="#2B2D3B"/>
</linearGradient>
<linearGradient id="paint8_linear_1_4329" x1="324.511" y1="76.0612" x2="360.648" y2="135.967" gradientUnits="userSpaceOnUse">
<stop stop-color="#0A0C1A"/>
<stop offset="1" stop-color="#0E101E"/>
</linearGradient>
<linearGradient id="paint9_linear_1_4329" x1="321.179" y1="77.5924" x2="356.077" y2="138.303" gradientUnits="userSpaceOnUse">
<stop stop-color="#0A0C1A"/>
<stop offset="1" stop-color="#0E101E"/>
</linearGradient>
<linearGradient id="paint10_linear_1_4329" x1="202.913" y1="6.12341" x2="145.025" y2="9.33491" gradientUnits="userSpaceOnUse">
<stop stop-color="#0D0F1D"/>
<stop offset="1" stop-color="#131523"/>
</linearGradient>
<linearGradient id="paint11_linear_1_4329" x1="204.711" y1="13.3452" x2="144.858" y2="20.4073" gradientUnits="userSpaceOnUse">
<stop stop-color="#0D0F1D"/>
<stop offset="1" stop-color="#131523"/>
</linearGradient>
<linearGradient id="paint12_linear_1_4329" x1="5.99219" y1="134.325" x2="21.007" y2="99.5475" gradientUnits="userSpaceOnUse">
<stop stop-color="#2E303E"/>
<stop offset="1" stop-color="#292B39"/>
</linearGradient>
<linearGradient id="paint13_linear_1_4329" x1="9.01563" y1="137.078" x2="26.1937" y2="100.968" gradientUnits="userSpaceOnUse">
<stop stop-color="#2E303E"/>
<stop offset="1" stop-color="#292B39"/>
</linearGradient>
</defs>
</svg>
