<svg id="svg" version="1.1" xmlns="http://www.w3.org/2000/svg" xmlns:xlink="http://www.w3.org/1999/xlink" width="400" height="490.79754601226995" viewBox="0, 0, 400,490.79754601226995"><g id="svgg"><path id="path0" d="M187.200 18.644 C 170.417 20.648,159.308 24.200,148.000 31.178 C 120.257 48.298,105.969 75.984,108.355 108.000 C 112.038 157.448,141.313 183.388,193.400 183.361 C 250.267 183.330,279.620 154.875,279.599 99.800 C 279.582 54.931,242.846 19.419,195.600 18.598 C 191.750 18.531,187.970 18.552,187.200 18.644 M191.817 39.152 C 197.132 41.566,197.231 47.445,192.000 50.129 C 185.264 53.585,177.517 47.229,181.436 41.461 C 183.354 38.638,188.275 37.543,191.817 39.152 M227.448 39.595 C 245.792 41.979,257.197 58.579,257.200 82.900 C 257.200 86.394,256.924 86.302,255.037 82.175 C 248.359 67.570,241.805 62.003,225.400 57.004 C 211.489 52.765,208.742 50.614,211.044 45.763 C 212.728 42.216,217.379 39.917,224.200 39.263 C 224.420 39.242,225.881 39.391,227.448 39.595 M234.100 206.676 C 234.485 206.776,235.115 206.776,235.500 206.676 C 235.885 206.575,235.570 206.493,234.800 206.493 C 234.030 206.493,233.715 206.575,234.100 206.676 M218.307 208.290 C 219.026 208.379,220.106 208.377,220.707 208.286 C 221.308 208.195,220.720 208.122,219.400 208.124 C 218.080 208.126,217.588 208.201,218.307 208.290 " stroke="none" fill="#2a2f30" fill-rule="evenodd"></path><path id="path1" d="M187.400 15.457 C 171.992 17.213,163.263 19.738,151.242 25.917 C 140.416 31.481,131.563 38.564,124.400 47.394 C 123.190 48.885,121.605 50.757,120.877 51.553 L 119.554 53.000 119.758 51.800 C 119.997 50.392,120.154 46.798,120.063 44.786 C 119.957 42.417,118.429 41.800,112.665 41.800 C 106.113 41.800,105.316 42.907,105.715 51.454 C 106.021 58.019,107.840 59.646,114.500 59.311 C 115.914 59.240,115.961 59.028,113.423 64.181 C 104.693 81.900,102.761 102.219,107.651 124.888 C 110.543 138.291,116.510 151.383,123.100 158.781 C 124.071 159.872,124.234 160.400,123.600 160.400 C 123.380 160.400,123.200 160.262,123.200 160.093 C 123.200 159.925,122.165 159.172,120.900 158.420 C 118.805 157.175,114.841 154.387,113.763 153.400 C 113.523 153.180,112.726 152.550,111.992 152.000 C 108.615 149.470,106.232 147.251,103.560 144.149 C 102.285 142.669,98.748 137.447,97.888 135.775 C 95.771 131.663,92.896 112.662,92.745 101.800 L 92.690 97.800 92.316 101.800 C 91.847 106.817,92.495 122.709,93.686 135.400 C 95.708 156.934,94.903 173.416,91.357 183.116 C 90.576 185.252,89.224 189.087,88.354 191.638 L 86.771 196.277 84.287 196.968 C 78.338 198.621,68.800 206.574,68.800 209.880 C 68.800 210.166,68.620 210.400,68.400 210.400 C 68.180 210.400,68.029 210.535,68.064 210.700 C 68.181 211.256,67.519 212.397,67.195 212.197 C 67.019 212.088,66.969 212.359,67.084 212.799 C 67.209 213.278,67.096 213.600,66.804 213.600 C 66.533 213.600,66.417 213.868,66.545 214.200 C 66.671 214.530,66.604 214.800,66.395 214.800 C 66.186 214.800,65.903 215.295,65.766 215.900 C 65.628 216.505,65.181 218.123,64.772 219.496 C 62.338 227.665,62.134 243.782,64.366 251.495 C 64.877 253.259,65.840 253.135,49.265 253.447 C 35.102 253.714,34.400 253.762,34.400 254.476 C 34.400 255.860,35.597 271.388,35.790 272.500 C 36.022 273.842,36.018 273.842,31.572 272.592 C 24.141 270.503,12.371 269.297,10.919 270.476 C 10.655 270.690,10.070 270.749,9.619 270.606 C 9.108 270.444,8.800 270.524,8.800 270.820 C 8.800 271.096,8.467 271.206,8.000 271.084 C 7.560 270.969,7.199 270.993,7.197 271.137 C 7.193 271.577,4.754 272.819,4.366 272.579 C 4.167 272.456,3.794 272.815,3.537 273.377 C 3.281 273.940,2.920 274.400,2.736 274.400 C 2.551 274.400,2.400 274.670,2.400 275.000 C 2.400 275.330,2.226 275.600,2.013 275.600 C 1.799 275.600,1.729 275.870,1.855 276.200 C 1.982 276.530,1.867 276.800,1.600 276.800 C 1.333 276.800,1.216 277.064,1.340 277.387 C 1.464 277.710,1.391 278.082,1.178 278.213 C 0.965 278.345,0.801 278.936,0.812 279.526 C 0.823 280.117,0.613 283.016,0.344 285.970 C -0.163 291.544,0.255 298.015,1.181 298.941 C 1.412 299.172,1.600 299.592,1.600 299.875 C 1.600 300.581,2.862 302.000,3.489 302.000 C 3.770 302.000,4.000 302.172,4.000 302.382 C 4.000 303.259,7.153 303.284,12.771 302.451 C 19.737 301.419,30.614 300.400,34.675 300.400 L 37.600 300.400 37.648 302.300 C 37.675 303.345,37.780 305.820,37.882 307.800 C 37.984 309.780,38.164 314.325,38.282 317.900 C 38.447 322.912,38.617 324.400,39.024 324.400 C 39.433 324.400,39.514 323.653,39.385 321.100 C 39.292 319.285,39.026 313.750,38.792 308.800 C 38.189 296.036,36.527 270.710,35.729 262.107 C 35.356 258.096,35.182 254.684,35.341 254.525 C 35.770 254.097,141.549 253.667,255.351 253.632 L 355.302 253.600 355.063 255.100 C 353.522 264.760,351.247 318.000,352.375 318.000 C 352.655 318.000,352.800 316.047,352.800 312.259 C 352.800 309.101,352.914 305.425,353.054 304.090 L 353.307 301.663 355.838 301.223 C 364.430 299.726,378.411 299.010,388.201 299.565 C 391.932 299.776,395.078 299.816,395.192 299.654 C 395.306 299.492,396.120 299.086,397.000 298.753 C 398.108 298.334,398.564 297.941,398.482 297.474 C 398.418 297.103,398.538 296.800,398.749 296.800 C 399.961 296.800,400.323 289.130,399.372 283.600 C 399.050 281.730,398.788 279.795,398.789 279.300 C 398.790 278.805,398.601 278.400,398.369 278.400 C 398.120 278.400,398.057 278.050,398.216 277.550 C 398.364 277.083,398.328 276.588,398.136 276.450 C 397.944 276.313,397.557 275.300,397.277 274.200 C 396.997 273.100,396.485 271.986,396.141 271.724 C 395.796 271.463,394.855 270.639,394.049 269.894 C 393.244 269.148,392.363 268.612,392.092 268.703 C 391.822 268.793,391.600 268.683,391.600 268.458 C 391.600 267.994,391.674 268.003,385.952 267.743 C 378.866 267.422,370.874 269.638,359.640 275.038 C 356.693 276.455,354.198 277.531,354.096 277.429 C 353.843 277.177,355.172 259.875,355.631 257.445 C 355.834 256.370,356.000 254.885,356.000 254.145 L 356.000 252.800 343.400 252.800 C 336.470 252.800,330.800 252.725,330.800 252.633 C 330.800 252.541,331.180 251.596,331.644 250.533 C 335.154 242.490,336.816 235.226,337.165 226.400 C 337.326 222.330,337.334 218.910,337.182 218.800 C 337.030 218.690,336.778 217.387,336.622 215.904 C 336.465 214.422,336.188 213.116,336.006 213.004 C 335.824 212.891,335.769 212.439,335.884 212.000 C 336.006 211.535,335.896 211.200,335.623 211.200 C 335.364 211.200,335.276 211.000,335.428 210.755 C 335.579 210.511,335.544 210.196,335.350 210.055 C 335.155 209.915,334.653 208.765,334.233 207.500 C 333.814 206.235,333.309 205.200,333.111 205.200 C 332.914 205.200,332.864 205.020,333.000 204.800 C 333.136 204.580,333.087 204.400,332.891 204.400 C 332.695 204.400,332.285 203.905,331.979 203.300 C 331.673 202.695,331.187 201.930,330.899 201.600 C 330.611 201.270,330.066 200.637,329.688 200.193 C 325.879 195.723,319.748 192.925,312.600 192.394 C 304.438 191.788,296.353 189.383,295.047 187.173 C 293.183 184.016,295.561 170.493,302.604 144.217 C 307.779 124.908,308.860 111.011,306.214 97.800 C 305.641 94.940,304.805 90.710,304.355 88.400 C 302.560 79.187,300.463 73.365,297.043 68.103 C 295.669 65.988,295.624 66.583,296.861 70.500 C 305.265 97.114,300.750 120.280,282.705 143.141 C 279.050 147.770,267.716 158.800,266.613 158.800 C 266.496 158.800,267.572 157.107,269.005 155.038 C 283.558 134.018,287.977 96.656,278.849 71.800 C 265.778 36.207,225.120 11.157,187.400 15.457 M207.400 19.385 C 249.477 25.833,279.760 59.513,279.703 99.800 C 279.625 155.042,250.444 183.298,193.400 183.370 C 138.530 183.439,107.854 153.351,108.012 99.620 C 108.159 50.100,155.968 11.504,207.400 19.385 M185.283 38.740 C 184.994 38.924,185.789 38.996,187.083 38.904 C 190.242 38.679,190.658 38.468,188.000 38.438 C 186.790 38.424,185.567 38.560,185.283 38.740 M191.904 39.644 C 195.944 41.644,196.609 46.233,193.279 49.143 C 192.238 50.053,192.236 50.067,193.200 49.515 C 197.464 47.074,195.548 38.797,190.720 38.800 C 190.434 38.800,190.967 39.180,191.904 39.644 M182.885 39.922 C 180.572 41.702,179.631 45.287,181.022 47.024 C 181.623 47.774,181.630 47.770,181.222 46.926 C 180.119 44.643,181.011 41.741,183.322 40.100 C 184.019 39.605,184.411 39.204,184.194 39.209 C 183.977 39.214,183.388 39.535,182.885 39.922 M218.900 40.048 C 218.185 40.254,217.600 40.520,217.600 40.638 C 217.600 40.757,217.976 40.735,218.436 40.589 C 218.895 40.443,220.110 40.182,221.136 40.009 C 222.769 39.733,222.827 39.693,221.600 39.683 C 220.830 39.677,219.615 39.841,218.900 40.048 M227.800 40.005 C 228.900 40.173,230.340 40.417,231.000 40.547 C 231.815 40.707,231.686 40.602,230.600 40.222 C 229.720 39.914,228.280 39.670,227.400 39.681 C 225.853 39.699,225.866 39.710,227.800 40.005 M214.744 42.024 L 213.800 42.847 215.000 42.145 C 216.579 41.220,216.603 41.200,216.111 41.200 C 215.879 41.200,215.264 41.571,214.744 42.024 M237.219 43.065 C 239.320 44.132,241.840 45.606,242.819 46.340 L 244.600 47.676 243.025 46.275 C 241.427 44.854,236.228 41.919,234.400 41.406 C 233.850 41.252,235.119 41.998,237.219 43.065 M110.567 42.643 C 111.801 43.116,111.292 44.280,109.743 44.532 C 108.941 44.662,107.861 45.167,107.343 45.654 L 106.400 46.539 106.406 45.570 C 106.419 43.569,108.736 41.940,110.567 42.643 M114.000 43.157 C 114.000 44.051,113.075 44.515,112.480 43.920 C 111.885 43.325,112.349 42.400,113.243 42.400 C 113.719 42.400,114.000 42.681,114.000 43.157 M212.496 43.700 C 210.568 45.758,209.942 48.156,210.826 50.096 C 211.282 51.098,215.052 53.881,215.435 53.498 C 215.561 53.372,215.018 52.961,214.228 52.586 C 210.564 50.848,209.819 47.552,212.373 44.374 C 213.759 42.649,213.827 42.280,212.496 43.700 M276.800 43.565 C 272.184 44.275,271.280 46.144,272.413 52.633 C 274.052 62.016,275.112 63.545,279.593 62.991 C 286.348 62.155,287.822 59.832,286.822 51.603 C 286.361 47.813,285.669 45.581,285.581 47.600 C 285.553 48.238,285.452 48.383,285.304 48.000 C 284.949 47.087,283.912 46.428,282.800 46.407 C 281.410 46.380,280.694 45.839,280.874 44.952 C 281.102 43.828,283.908 43.999,284.878 45.197 C 285.423 45.870,285.600 45.934,285.600 45.460 C 285.600 43.543,281.994 42.767,276.800 43.565 M279.706 44.639 C 280.147 45.080,279.522 46.000,278.781 46.000 C 277.939 46.000,277.437 45.387,277.800 44.800 C 278.070 44.363,279.324 44.257,279.706 44.639 M244.800 47.868 C 244.800 48.379,246.335 49.798,246.601 49.532 C 246.709 49.425,246.348 48.914,245.798 48.399 C 245.249 47.883,244.800 47.644,244.800 47.868 M190.400 50.461 C 189.850 50.686,188.410 50.782,187.200 50.674 C 185.830 50.551,185.302 50.602,185.800 50.810 C 187.031 51.324,189.667 51.225,191.000 50.614 C 192.389 49.978,191.888 49.850,190.400 50.461 M249.385 53.500 C 250.002 54.435,250.583 55.200,250.676 55.200 C 250.964 55.200,249.433 52.766,248.832 52.269 C 248.520 52.011,248.768 52.565,249.385 53.500 M219.968 55.228 C 221.160 55.651,222.205 55.928,222.290 55.844 C 222.476 55.657,218.833 54.388,218.229 54.429 C 217.993 54.445,218.776 54.805,219.968 55.228 M251.218 56.700 C 251.242 57.104,253.159 60.667,253.182 60.351 C 253.210 59.964,251.585 56.400,251.381 56.400 C 251.282 56.400,251.208 56.535,251.218 56.700 M227.400 57.600 C 228.500 58.006,229.670 58.338,230.000 58.338 C 230.330 58.338,229.700 58.006,228.600 57.600 C 227.500 57.194,226.330 56.862,226.000 56.862 C 225.670 56.862,226.300 57.194,227.400 57.600 M232.202 59.141 C 233.083 59.550,234.253 59.998,234.802 60.137 C 235.351 60.276,235.080 60.052,234.200 59.639 C 233.320 59.226,232.150 58.778,231.600 58.644 C 231.050 58.509,231.321 58.733,232.202 59.141 M236.033 60.551 C 236.442 60.921,239.600 62.395,239.600 62.216 C 239.600 61.989,236.581 60.400,236.149 60.400 C 235.994 60.400,235.942 60.468,236.033 60.551 M253.461 61.600 C 253.917 63.402,254.852 65.603,254.584 64.244 C 254.459 63.608,254.098 62.528,253.782 61.844 C 253.351 60.908,253.271 60.848,253.461 61.600 M240.000 62.524 C 240.000 62.622,240.973 63.453,242.162 64.371 C 244.593 66.246,248.259 70.516,250.753 74.375 C 252.689 77.371,253.347 78.104,252.031 75.800 C 249.159 70.770,240.000 60.663,240.000 62.524 M255.869 71.000 C 256.501 76.411,256.693 77.483,256.729 75.800 C 256.747 74.920,256.509 73.030,256.199 71.600 C 255.717 69.374,255.669 69.288,255.869 71.000 M253.882 79.789 C 254.473 80.993,255.023 81.911,255.105 81.829 C 255.284 81.649,253.267 77.600,252.998 77.600 C 252.894 77.600,253.292 78.585,253.882 79.789 M256.784 81.500 C 256.769 84.477,256.744 84.556,256.171 83.500 C 255.305 81.904,255.167 82.152,255.893 84.000 C 256.858 86.457,257.200 85.934,257.200 82.000 C 257.200 80.020,257.110 78.400,257.000 78.400 C 256.890 78.400,256.793 79.795,256.784 81.500 M287.326 193.265 C 290.182 194.785,292.676 197.769,294.648 202.025 C 295.809 204.530,296.008 204.584,297.378 202.763 C 298.025 201.903,298.707 201.200,298.894 201.200 C 299.082 201.200,299.706 200.763,300.283 200.228 C 302.431 198.236,308.319 195.756,311.871 195.347 C 316.222 194.846,326.831 200.107,326.070 202.390 C 325.967 202.698,326.081 202.797,326.348 202.632 C 326.606 202.473,326.800 202.606,326.800 202.943 C 326.800 203.268,326.575 203.614,326.300 203.712 C 326.025 203.810,325.931 204.031,326.090 204.202 C 326.250 204.374,326.634 204.304,326.944 204.046 C 327.397 203.670,327.669 203.833,328.331 204.879 C 329.054 206.021,329.195 207.241,328.478 206.155 C 328.325 205.923,327.165 205.248,325.900 204.655 C 324.635 204.062,323.600 203.322,323.600 203.012 C 323.600 202.701,323.422 202.337,323.205 202.203 C 322.975 202.061,322.912 202.228,323.055 202.600 C 323.311 203.266,323.361 203.265,320.296 202.616 C 314.522 201.394,307.792 202.694,304.562 205.655 C 304.101 206.077,303.471 206.357,303.162 206.277 C 302.853 206.197,302.739 206.208,302.908 206.302 C 303.078 206.395,302.316 207.512,301.215 208.782 C 298.229 212.230,298.205 211.366,301.676 225.317 C 303.384 232.183,304.971 239.150,305.203 240.800 C 305.852 245.412,306.349 252.172,306.060 252.440 C 305.917 252.572,296.690 252.594,285.556 252.490 L 265.311 252.300 265.040 248.096 C 264.771 243.937,264.237 240.852,263.553 239.505 C 263.359 239.123,263.200 238.385,263.200 237.865 C 263.200 235.734,260.851 231.200,259.747 231.200 C 259.446 231.200,259.200 230.959,259.200 230.664 C 259.200 227.460,246.971 226.231,221.020 226.827 C 212.209 227.029,195.550 227.164,184.000 227.125 C 169.547 227.078,162.564 227.194,161.600 227.500 C 160.076 227.983,153.112 228.922,150.696 228.970 C 149.711 228.990,149.254 229.163,149.373 229.473 C 149.477 229.746,149.032 230.061,148.322 230.217 C 142.342 231.531,139.609 237.368,138.215 251.800 C 138.117 252.823,139.562 252.757,114.500 252.889 L 93.600 253.000 93.600 245.200 C 93.601 231.960,94.704 219.936,96.620 212.284 C 97.675 208.067,97.734 207.733,97.346 208.120 C 97.207 208.260,96.657 208.031,96.125 207.613 C 92.595 204.836,83.866 204.042,78.238 205.985 C 76.939 206.433,75.769 206.800,75.638 206.800 C 74.883 206.800,80.413 202.263,82.198 201.418 C 86.638 199.318,93.438 198.482,95.938 199.730 C 96.522 200.021,97.756 200.651,98.679 201.130 C 100.946 202.305,100.971 202.298,103.598 199.866 C 107.186 196.545,116.447 194.523,119.858 196.317 C 120.266 196.532,121.410 196.840,122.400 197.002 C 123.390 197.165,124.702 197.653,125.316 198.087 C 126.947 199.242,130.182 200.914,133.600 202.370 C 135.250 203.072,136.960 203.807,137.400 204.003 C 138.757 204.608,141.996 205.600,142.612 205.600 C 142.934 205.600,144.233 205.955,145.498 206.389 C 146.764 206.823,149.510 207.469,151.600 207.825 C 153.690 208.181,156.293 208.631,157.385 208.825 C 163.528 209.918,196.797 210.424,209.000 209.609 C 232.878 208.015,239.132 207.143,248.989 204.033 C 256.185 201.762,264.138 198.180,263.229 197.618 C 262.859 197.389,262.899 197.248,263.387 197.060 C 263.770 196.914,263.940 196.973,263.797 197.205 C 263.236 198.113,267.001 196.178,268.650 194.711 C 269.498 193.956,270.063 193.815,274.600 193.223 C 278.473 192.717,286.346 192.743,287.326 193.265 M318.800 198.000 C 318.800 198.220,319.070 198.400,319.400 198.400 C 319.730 198.400,320.000 198.220,320.000 198.000 C 320.000 197.780,319.730 197.600,319.400 197.600 C 319.070 197.600,318.800 197.780,318.800 198.000 M323.600 200.751 C 323.600 201.272,324.779 202.155,325.076 201.857 C 325.218 201.716,325.123 201.600,324.867 201.600 C 324.610 201.600,324.400 201.330,324.400 201.000 C 324.400 200.670,324.220 200.400,324.000 200.400 C 323.780 200.400,323.600 200.558,323.600 200.751 M129.600 201.427 C 129.600 201.511,130.185 201.882,130.900 202.252 C 131.999 202.820,132.121 202.828,131.687 202.305 C 131.221 201.744,129.600 201.062,129.600 201.427 M299.423 201.833 C 298.774 202.307,298.754 202.400,299.300 202.400 C 299.659 202.400,300.071 202.208,300.216 201.973 C 300.640 201.287,300.261 201.220,299.423 201.833 M310.400 201.531 C 310.400 201.713,310.940 201.782,311.600 201.685 C 312.260 201.588,312.800 201.440,312.800 201.355 C 312.800 201.270,312.260 201.200,311.600 201.200 C 310.940 201.200,310.400 201.349,310.400 201.531 M137.298 201.866 C 137.021 201.977,136.886 202.216,136.998 202.397 C 137.110 202.578,136.826 202.627,136.367 202.507 C 135.439 202.264,136.085 201.590,137.200 201.638 C 137.612 201.655,137.643 201.727,137.298 201.866 M251.822 202.447 C 250.515 202.870,249.255 203.144,249.022 203.057 C 248.790 202.970,249.140 202.774,249.800 202.621 C 250.460 202.468,251.360 202.188,251.800 201.999 C 252.240 201.809,252.960 201.660,253.400 201.667 C 253.840 201.674,253.130 202.025,251.822 202.447 M301.278 202.424 C 300.803 203.185,300.826 203.214,301.582 202.810 C 302.032 202.569,302.400 202.198,302.400 201.986 C 302.400 201.331,301.819 201.558,301.278 202.424 M308.100 202.276 C 308.485 202.376,309.115 202.376,309.500 202.276 C 309.885 202.175,309.570 202.093,308.800 202.093 C 308.030 202.093,307.715 202.175,308.100 202.276 M80.412 203.184 C 80.088 203.389,79.941 203.675,80.086 203.819 C 80.230 203.963,80.760 203.793,81.263 203.441 C 82.249 202.750,81.470 202.515,80.412 203.184 M140.800 203.207 C 141.276 203.221,141.256 203.308,140.705 203.629 C 140.231 203.905,139.755 203.897,139.205 203.603 C 138.128 203.026,138.182 202.648,139.300 202.948 C 139.795 203.081,140.470 203.197,140.800 203.207 M247.200 203.600 C 247.805 203.794,247.936 203.936,247.533 203.960 C 247.166 203.982,246.551 204.121,246.167 204.268 C 245.711 204.443,245.563 204.383,245.741 204.095 C 245.908 203.825,245.584 203.590,244.907 203.487 C 243.802 203.320,243.803 203.320,245.000 203.300 C 245.660 203.289,246.650 203.424,247.200 203.600 M143.000 204.000 C 142.864 204.220,143.078 204.414,143.476 204.432 C 143.918 204.451,144.000 204.543,143.687 204.669 C 142.801 205.025,141.700 204.434,142.411 203.985 C 143.171 203.504,143.304 203.507,143.000 204.000 M245.167 204.547 C 245.075 204.628,244.280 204.804,243.400 204.938 C 242.285 205.107,242.042 205.071,242.600 204.819 C 243.368 204.471,245.510 204.244,245.167 204.547 M239.000 206.000 C 239.147 206.238,238.710 206.389,237.924 206.372 C 236.821 206.348,236.733 206.286,237.400 206.000 C 238.485 205.534,238.712 205.534,239.000 206.000 M151.600 206.400 C 152.085 206.714,152.028 206.789,151.300 206.794 C 150.805 206.797,150.400 206.620,150.400 206.400 C 150.400 205.899,150.824 205.899,151.600 206.400 M128.578 206.835 C 128.431 207.074,128.510 207.470,128.755 207.715 C 129.082 208.042,129.200 207.926,129.200 207.280 C 129.200 206.314,128.992 206.165,128.578 206.835 M235.700 206.682 C 235.205 206.778,234.395 206.778,233.900 206.682 C 233.405 206.587,233.810 206.509,234.800 206.509 C 235.790 206.509,236.195 206.587,235.700 206.682 M225.507 207.486 C 224.906 207.577,223.826 207.579,223.107 207.490 C 222.388 207.401,222.880 207.326,224.200 207.324 C 225.520 207.322,226.108 207.395,225.507 207.486 M126.665 208.800 C 125.541 209.991,125.677 210.459,126.868 209.500 C 127.384 209.084,128.180 207.600,127.886 207.600 C 127.837 207.600,127.288 208.140,126.665 208.800 M162.802 208.010 C 163.227 208.278,162.850 208.390,161.500 208.394 C 160.455 208.397,159.600 208.249,159.600 208.065 C 159.600 207.595,162.078 207.552,162.802 208.010 M215.400 208.000 C 215.544 208.232,215.176 208.388,214.524 208.372 C 213.451 208.345,213.572 208.182,215.076 207.628 C 215.118 207.613,215.264 207.780,215.400 208.000 M221.959 208.226 C 222.055 208.321,220.888 208.397,219.367 208.394 C 217.539 208.390,216.796 208.264,217.178 208.022 C 217.719 207.680,221.577 207.844,221.959 208.226 M169.107 208.686 C 168.506 208.777,167.426 208.779,166.707 208.690 C 165.988 208.601,166.480 208.526,167.800 208.524 C 169.120 208.522,169.708 208.595,169.107 208.686 M211.312 208.692 C 210.384 208.776,208.764 208.777,207.712 208.695 C 206.660 208.612,207.420 208.543,209.400 208.542 C 211.380 208.541,212.240 208.608,211.312 208.692 M182.900 209.093 C 181.965 209.177,180.435 209.177,179.500 209.093 C 178.565 209.009,179.330 208.940,181.200 208.940 C 183.070 208.940,183.835 209.009,182.900 209.093 M187.900 209.087 C 187.295 209.178,186.305 209.178,185.700 209.087 C 185.095 208.995,185.590 208.920,186.800 208.920 C 188.010 208.920,188.505 208.995,187.900 209.087 M195.305 209.082 C 194.814 209.177,193.914 209.179,193.305 209.087 C 192.697 208.995,193.100 208.917,194.200 208.914 C 195.300 208.911,195.797 208.987,195.305 209.082 M157.200 209.933 C 157.200 210.190,156.705 210.425,156.100 210.454 C 155.090 210.504,155.078 210.524,155.946 210.688 C 156.919 210.873,157.960 210.227,157.473 209.740 C 157.323 209.590,157.200 209.677,157.200 209.933 M158.800 210.800 C 158.800 211.020,159.171 211.200,159.624 211.200 C 160.077 211.200,160.336 211.020,160.200 210.800 C 160.064 210.580,159.693 210.400,159.376 210.400 C 159.059 210.400,158.800 210.580,158.800 210.800 M177.300 210.676 C 177.685 210.776,178.315 210.776,178.700 210.676 C 179.085 210.575,178.770 210.493,178.000 210.493 C 177.230 210.493,176.915 210.575,177.300 210.676 M180.200 210.800 C 179.633 211.043,180.123 211.152,181.876 211.172 C 183.238 211.187,184.464 211.020,184.600 210.800 C 184.905 210.307,181.347 210.307,180.200 210.800 M264.347 213.053 C 265.087 213.376,265.787 213.546,265.902 213.431 C 266.143 213.190,264.182 212.384,263.474 212.433 C 263.213 212.451,263.606 212.730,264.347 213.053 M268.209 213.961 C 268.424 214.171,269.140 214.471,269.800 214.628 C 271.348 214.995,271.000 214.654,269.209 214.049 C 268.444 213.790,267.994 213.750,268.209 213.961 M115.614 221.574 C 114.987 222.746,115.114 222.886,116.000 222.000 C 116.885 221.115,116.994 220.800,116.414 220.800 C 116.202 220.800,115.842 221.148,115.614 221.574 M276.492 222.875 C 276.579 223.136,276.864 223.421,277.125 223.508 C 277.418 223.606,277.507 223.423,277.357 223.033 C 277.078 222.306,276.252 222.155,276.492 222.875 M173.000 225.600 C 173.136 225.820,173.946 226.000,174.800 226.000 C 175.654 226.000,176.464 225.820,176.600 225.600 C 176.753 225.353,176.063 225.200,174.800 225.200 C 173.537 225.200,172.847 225.353,173.000 225.600 M278.800 225.381 C 278.800 226.068,279.830 227.600,280.291 227.600 C 280.711 227.600,280.636 227.294,280.000 226.400 C 279.207 225.287,278.800 224.941,278.800 225.381 M213.900 225.895 C 215.055 225.976,216.945 225.976,218.100 225.895 C 219.255 225.814,218.310 225.748,216.000 225.748 C 213.690 225.748,212.745 225.814,213.900 225.895 M224.707 225.890 C 225.426 225.979,226.506 225.977,227.107 225.886 C 227.708 225.795,227.120 225.722,225.800 225.724 C 224.480 225.726,223.988 225.801,224.707 225.890 M151.105 228.283 C 151.602 228.379,152.322 228.375,152.705 228.275 C 153.087 228.175,152.680 228.096,151.800 228.101 C 150.920 228.105,150.607 228.187,151.105 228.283 M145.800 230.000 C 145.664 230.220,145.823 230.400,146.153 230.400 C 146.483 230.400,146.864 230.220,147.000 230.000 C 147.136 229.780,146.977 229.600,146.647 229.600 C 146.317 229.600,145.936 229.780,145.800 230.000 M282.809 232.274 C 282.804 232.535,282.976 233.210,283.190 233.774 C 283.444 234.441,283.444 234.800,283.190 234.800 C 282.976 234.800,282.800 235.019,282.800 235.286 C 282.800 235.596,283.039 235.532,283.462 235.110 C 284.075 234.497,284.075 234.351,283.471 233.124 C 283.112 232.396,282.814 232.013,282.809 232.274 M285.064 233.600 C 285.454 234.260,285.926 234.800,286.113 234.800 C 286.301 234.800,286.070 234.260,285.600 233.600 C 285.130 232.940,284.658 232.400,284.550 232.400 C 284.443 232.400,284.674 232.940,285.064 233.600 M250.217 233.704 C 254.330 234.886,256.186 236.786,257.799 241.466 C 258.668 243.986,259.757 251.806,259.335 252.500 C 259.012 253.032,255.201 252.848,255.194 252.300 C 255.189 251.923,255.114 251.917,254.886 252.274 C 254.497 252.886,221.738 253.347,221.367 252.746 C 220.607 251.517,222.835 248.657,225.299 247.699 C 226.562 247.207,226.566 247.199,225.424 247.423 C 223.173 247.864,220.800 250.305,220.800 252.180 C 220.800 253.015,197.001 253.133,196.665 252.300 C 196.544 252.001,196.450 252.082,196.432 252.500 C 196.394 253.329,167.600 253.616,167.600 252.787 C 167.600 252.560,167.864 251.743,168.186 250.972 C 168.508 250.201,168.611 249.670,168.415 249.791 C 168.219 249.912,167.851 250.639,167.598 251.406 C 167.154 252.753,167.068 252.801,165.069 252.831 C 163.931 252.847,162.640 252.937,162.200 253.030 C 161.760 253.124,159.555 253.085,157.300 252.945 C 152.528 252.649,152.823 253.144,153.845 247.170 C 155.366 238.274,157.954 235.885,168.000 234.098 C 174.757 232.897,246.217 232.554,250.217 233.704 M138.000 236.800 C 138.000 237.460,138.149 238.000,138.331 238.000 C 138.513 238.000,138.582 237.460,138.485 236.800 C 138.388 236.140,138.240 235.600,138.155 235.600 C 138.070 235.600,138.000 236.140,138.000 236.800 M287.588 237.178 C 287.817 237.605,288.227 238.093,288.498 238.261 C 288.833 238.467,288.671 238.655,287.996 238.843 C 287.075 239.099,287.097 239.123,288.287 239.160 L 289.573 239.200 288.747 237.800 C 287.889 236.346,286.842 235.784,287.588 237.178 M103.463 242.083 C 103.138 243.325,103.385 243.389,103.926 242.202 C 104.177 241.651,104.228 241.200,104.038 241.200 C 103.848 241.200,103.589 241.597,103.463 242.083 M181.100 241.482 C 181.595 241.578,182.405 241.578,182.900 241.482 C 183.395 241.387,182.990 241.309,182.000 241.309 C 181.010 241.309,180.605 241.387,181.100 241.482 M265.012 242.117 C 264.841 242.512,264.813 242.947,264.951 243.084 C 265.357 243.490,265.684 242.920,265.497 242.131 C 265.332 241.433,265.310 241.432,265.012 242.117 M291.200 242.167 C 291.200 242.478,290.975 242.816,290.700 242.916 C 290.425 243.017,290.677 243.077,291.260 243.049 C 292.141 243.008,292.257 242.881,291.946 242.300 C 291.493 241.453,291.200 241.401,291.200 242.167 M173.322 244.229 L 172.200 245.258 173.500 244.354 C 174.215 243.857,174.800 243.393,174.800 243.325 C 174.800 243.009,174.358 243.280,173.322 244.229 M192.662 246.032 C 193.575 247.005,194.700 248.430,195.160 249.200 C 195.620 249.970,195.998 250.407,195.999 250.170 C 196.001 249.458,193.464 246.120,192.191 245.161 C 191.296 244.487,191.413 244.704,192.662 246.032 M294.213 246.400 C 294.555 247.595,294.721 247.813,295.041 247.493 C 295.173 247.360,294.977 246.835,294.604 246.326 L 293.926 245.400 294.213 246.400 M169.923 247.500 C 169.218 248.321,168.690 249.200,168.901 249.200 C 168.983 249.200,169.449 248.660,169.937 248.000 C 170.901 246.696,170.892 246.372,169.923 247.500 M241.700 247.097 C 243.185 247.174,245.615 247.174,247.100 247.097 C 248.585 247.020,247.370 246.957,244.400 246.957 C 241.430 246.957,240.215 247.020,241.700 247.097 M251.631 248.110 C 252.374 248.610,253.390 249.626,253.890 250.369 C 255.001 252.017,255.101 251.499,254.016 249.719 C 253.587 249.015,252.696 248.160,252.038 247.819 C 250.287 246.914,250.078 247.063,251.631 248.110 M295.213 248.090 C 295.206 248.250,295.559 248.970,295.999 249.690 C 296.474 250.470,296.798 250.735,296.799 250.344 C 296.800 249.714,295.241 247.497,295.213 248.090 M128.518 251.898 C 130.233 251.973,132.933 251.972,134.518 251.897 C 136.103 251.821,134.700 251.759,131.400 251.760 C 128.100 251.761,126.803 251.822,128.518 251.898 M390.875 273.162 C 395.931 275.133,398.556 291.383,394.271 294.190 C 392.778 295.169,389.342 294.877,389.554 293.789 C 389.638 293.355,389.788 291.560,389.887 289.801 C 389.986 288.041,390.237 286.397,390.444 286.147 C 390.691 285.850,390.627 285.619,390.260 285.478 C 389.952 285.360,389.602 284.754,389.483 284.132 C 388.724 280.180,387.807 278.038,385.661 275.200 C 385.079 274.430,384.652 273.652,384.711 273.470 C 384.771 273.289,384.635 273.255,384.410 273.394 C 384.184 273.533,383.787 273.516,383.527 273.355 C 382.044 272.438,388.580 272.267,390.875 273.162 M387.789 274.017 C 387.659 274.228,387.639 274.400,387.744 274.400 C 387.849 274.400,388.219 274.509,388.567 274.643 C 388.915 274.776,389.200 274.706,389.200 274.486 C 389.200 273.926,388.076 273.553,387.789 274.017 M13.972 276.693 C 13.250 277.515,12.467 278.207,12.230 278.232 C 11.994 278.258,11.575 278.306,11.300 278.339 C 11.025 278.373,10.800 278.683,10.800 279.029 C 10.800 279.374,10.530 279.927,10.200 280.257 C 9.520 280.938,9.398 282.000,10.000 282.000 C 10.220 282.000,10.400 281.842,10.400 281.649 C 10.400 281.456,10.696 280.601,11.057 279.749 C 12.128 277.224,12.092 278.790,11.005 281.985 C 9.808 285.505,9.626 291.324,10.596 295.051 C 11.305 297.770,11.422 297.594,8.721 297.872 C 4.364 298.322,3.311 295.893,3.719 286.341 C 4.076 277.999,6.302 275.317,12.941 275.230 L 15.283 275.200 13.972 276.693 M9.564 276.431 C 9.153 276.691,9.299 276.789,10.100 276.794 C 11.294 276.801,11.510 276.604,10.664 276.280 C 10.369 276.167,9.874 276.235,9.564 276.431 M6.931 279.700 L 6.861 281.800 7.211 280.094 C 7.403 279.155,7.670 278.210,7.804 277.994 C 7.938 277.777,7.812 277.600,7.524 277.600 C 7.167 277.600,6.978 278.272,6.931 279.700 M8.441 279.400 C 8.412 280.060,8.269 281.050,8.122 281.600 C 7.881 282.504,7.915 282.541,8.478 281.979 C 8.950 281.507,9.027 280.978,8.796 279.779 C 8.524 278.367,8.487 278.327,8.441 279.400 M394.093 280.000 C 394.093 280.770,394.175 281.085,394.276 280.700 C 394.376 280.315,394.376 279.685,394.276 279.300 C 394.175 278.915,394.093 279.230,394.093 280.000 M393.449 282.215 C 393.312 282.573,393.215 283.166,393.234 283.533 C 393.253 283.900,393.427 283.669,393.621 283.020 C 393.998 281.758,393.865 281.133,393.449 282.215 M391.200 284.800 C 391.200 285.547,391.307 285.653,391.680 285.280 C 392.053 284.907,392.053 284.693,391.680 284.320 C 391.307 283.947,391.200 284.053,391.200 284.800 M393.486 291.162 C 393.109 291.801,392.801 292.476,392.802 292.662 C 392.804 293.066,394.765 290.732,394.786 290.300 C 394.818 289.618,394.127 290.076,393.486 291.162 M5.253 294.759 C 4.812 295.038,4.878 295.278,5.586 295.986 C 6.640 297.040,7.226 296.734,6.240 295.644 C 5.705 295.053,5.668 294.836,6.076 294.673 C 6.364 294.558,6.420 294.452,6.200 294.438 C 5.980 294.424,5.554 294.568,5.253 294.759 M9.600 296.200 C 9.600 296.530,9.780 296.800,10.000 296.800 C 10.220 296.800,10.400 296.530,10.400 296.200 C 10.400 295.870,10.220 295.600,10.000 295.600 C 9.780 295.600,9.600 295.870,9.600 296.200 M358.909 316.000 C 358.909 316.990,358.987 317.395,359.082 316.900 C 359.178 316.405,359.178 315.595,359.082 315.100 C 358.987 314.605,358.909 315.010,358.909 316.000 M359.200 320.536 C 359.200 320.620,359.794 321.318,360.520 322.087 C 363.489 325.236,363.480 329.773,360.497 333.029 C 359.211 334.432,359.150 334.604,359.797 334.984 C 365.093 338.088,366.580 344.263,362.979 348.195 C 361.316 350.011,361.315 349.619,362.989 351.813 C 366.191 356.008,365.296 361.518,361.000 364.053 C 359.348 365.028,359.399 364.790,360.420 366.748 C 360.870 367.613,361.268 369.036,361.303 369.912 C 361.390 372.101,362.252 371.511,364.358 367.820 C 371.791 354.788,371.796 331.395,364.367 323.936 C 362.826 322.389,359.200 320.003,359.200 320.536 M30.595 326.570 C 26.168 329.610,24.546 332.297,23.167 338.875 C 21.759 345.595,22.412 359.866,24.372 365.200 C 25.780 369.031,26.950 371.873,27.294 372.300 C 27.516 372.575,27.573 372.800,27.420 372.800 C 27.268 372.800,27.381 373.064,27.671 373.386 C 28.753 374.585,29.042 375.031,29.563 376.300 C 30.263 378.004,30.800 377.952,30.800 376.180 C 30.800 374.561,31.683 372.617,32.669 372.066 C 33.247 371.742,33.179 371.610,32.169 371.086 C 26.593 368.198,25.424 360.290,30.089 357.023 L 30.965 356.409 29.728 355.104 C 25.317 350.457,26.538 344.860,32.759 341.208 C 33.192 340.954,32.995 340.596,31.885 339.621 C 28.207 336.392,28.616 330.659,32.766 327.262 C 35.607 324.938,33.807 324.364,30.595 326.570 M52.114 349.400 C 52.117 350.500,52.195 350.903,52.287 350.295 C 52.379 349.686,52.377 348.786,52.282 348.295 C 52.187 347.803,52.111 348.300,52.114 349.400 M350.700 366.693 C 351.635 366.777,353.165 366.777,354.100 366.693 C 355.035 366.609,354.270 366.540,352.400 366.540 C 350.530 366.540,349.765 366.609,350.700 366.693 M37.300 373.076 C 37.685 373.176,38.315 373.176,38.700 373.076 C 39.085 372.975,38.770 372.893,38.000 372.893 C 37.230 372.893,36.915 372.975,37.300 373.076 M40.305 373.083 C 40.802 373.179,41.522 373.175,41.905 373.075 C 42.287 372.975,41.880 372.896,41.000 372.901 C 40.120 372.905,39.807 372.987,40.305 373.083 M51.714 376.600 C 51.717 377.700,51.795 378.103,51.887 377.495 C 51.979 376.886,51.977 375.986,51.882 375.495 C 51.787 375.003,51.711 375.500,51.714 376.600 M352.158 380.100 C 352.276 381.255,352.478 389.040,352.605 397.400 C 352.839 412.728,353.109 422.800,354.195 456.800 C 354.984 481.500,355.015 479.600,353.826 479.600 C 353.291 479.600,351.559 479.872,349.979 480.204 C 343.597 481.547,328.088 483.628,312.600 485.220 C 264.131 490.202,147.049 491.152,68.000 487.204 C 63.710 486.990,55.520 486.615,49.800 486.370 C 44.080 486.125,39.310 485.837,39.200 485.730 C 38.433 484.979,38.992 404.133,39.870 388.700 C 40.047 385.597,39.988 384.400,39.657 384.400 C 39.352 384.400,39.200 385.465,39.200 387.600 C 39.200 389.707,39.046 390.800,38.749 390.800 C 38.419 390.800,38.377 393.359,38.590 400.351 C 38.775 406.379,38.740 409.990,38.497 410.140 C 38.253 410.291,38.121 424.443,38.139 448.535 L 38.166 486.691 39.783 486.758 C 40.672 486.795,43.650 486.906,46.400 487.005 C 64.593 487.660,76.269 488.245,76.697 488.522 C 76.971 488.699,80.121 488.830,83.697 488.813 C 90.626 488.781,95.331 488.893,118.400 489.638 C 138.253 490.279,235.235 490.294,250.200 489.657 C 256.360 489.395,263.470 489.090,266.000 488.979 C 268.530 488.868,272.626 488.793,275.103 488.811 C 277.579 488.829,279.829 488.699,280.103 488.522 C 280.711 488.128,295.505 487.113,299.460 487.194 C 301.119 487.228,302.431 487.073,302.584 486.826 C 302.751 486.555,303.642 486.492,305.018 486.654 C 306.469 486.824,307.380 486.749,307.769 486.426 C 308.153 486.107,308.965 486.036,310.170 486.216 C 311.171 486.367,312.307 486.343,312.695 486.164 C 313.501 485.792,322.610 484.765,324.964 484.781 C 325.825 484.787,326.763 484.596,327.050 484.358 C 327.366 484.096,328.209 484.033,329.186 484.198 C 330.095 484.351,330.800 484.310,330.800 484.104 C 330.800 483.750,337.686 482.816,340.270 482.819 C 340.968 482.820,341.650 482.642,341.785 482.424 C 341.920 482.205,342.564 482.133,343.216 482.263 C 343.988 482.418,344.400 482.337,344.400 482.032 C 344.400 481.714,344.848 481.648,345.800 481.826 C 346.628 481.982,347.200 481.929,347.200 481.696 C 347.200 481.480,348.456 481.180,349.991 481.028 C 351.526 480.877,352.887 480.583,353.015 480.375 C 353.144 480.167,353.671 480.103,354.187 480.232 C 355.491 480.560,355.556 480.115,355.362 472.200 C 355.270 468.460,355.217 462.205,355.244 458.300 C 355.281 452.983,355.171 451.200,354.808 451.200 C 354.436 451.200,354.392 449.390,354.617 443.357 C 354.811 438.147,354.772 435.428,354.501 435.257 C 354.134 435.026,353.286 406.921,353.008 385.800 C 352.903 377.796,352.919 378.000,352.371 378.000 C 352.093 378.000,352.018 378.739,352.158 380.100 " stroke="none" fill="#939da4" fill-rule="evenodd"></path><path id="path2" d="M184.237 39.946 C 181.197 41.638,180.100 44.286,181.400 46.799 C 184.373 52.550,195.128 50.990,195.184 44.800 C 195.226 40.156,188.900 37.350,184.237 39.946 M220.000 40.557 C 212.731 42.176,208.791 47.702,212.456 51.136 C 213.195 51.829,213.944 52.397,214.119 52.398 C 214.295 52.399,215.195 52.767,216.119 53.216 C 217.044 53.665,219.240 54.467,221.000 54.998 C 234.918 59.201,238.263 60.571,242.093 63.639 C 247.006 67.574,252.024 74.237,255.243 81.100 C 255.888 82.475,256.459 83.600,256.512 83.600 C 256.783 83.600,255.927 73.069,255.442 70.438 C 253.487 59.820,248.609 50.810,242.400 46.351 C 235.268 41.228,226.809 39.040,220.000 40.557 M108.800 43.079 C 108.011 43.375,106.800 44.440,106.800 44.838 C 106.800 45.011,107.295 44.894,107.900 44.579 C 108.505 44.263,109.420 44.004,109.933 44.002 C 110.501 44.001,110.802 43.804,110.700 43.500 C 110.511 42.931,109.683 42.748,108.800 43.079 M112.600 43.200 C 112.464 43.420,112.734 43.600,113.200 43.600 C 113.666 43.600,113.936 43.420,113.800 43.200 C 113.664 42.980,113.394 42.800,113.200 42.800 C 113.006 42.800,112.736 42.980,112.600 43.200 M286.942 43.793 C 287.086 44.168,287.499 46.033,287.861 47.937 C 288.780 52.779,287.859 52.415,299.839 52.673 C 311.710 52.929,311.643 52.962,305.400 49.872 C 297.037 45.733,286.334 42.208,286.942 43.793 M100.090 45.007 C 92.013 47.978,86.216 51.547,82.609 55.769 C 80.350 58.413,80.454 58.734,83.291 57.887 C 90.067 55.867,96.687 54.018,100.100 53.193 L 104.000 52.251 104.000 50.384 C 104.000 49.357,104.116 47.411,104.257 46.059 C 104.557 43.193,104.832 43.262,100.090 45.007 M281.467 44.667 C 280.915 45.218,281.245 45.519,282.700 45.791 C 283.525 45.945,284.425 46.258,284.700 46.485 C 285.065 46.787,285.200 46.718,285.200 46.229 C 285.200 45.287,282.130 44.003,281.467 44.667 M304.400 45.224 C 304.400 45.457,304.565 45.545,304.766 45.421 C 304.967 45.297,305.212 45.421,305.311 45.698 C 305.410 45.974,305.645 46.055,305.834 45.878 C 306.022 45.701,305.912 45.389,305.588 45.184 C 304.809 44.692,304.400 44.705,304.400 45.224 M313.213 51.067 C 313.219 51.250,313.714 51.755,314.313 52.189 L 315.400 52.977 314.766 52.011 C 314.120 51.027,313.190 50.461,313.213 51.067 M72.800 71.400 C 72.800 71.730,72.980 72.000,73.200 72.000 C 73.420 72.000,73.600 71.730,73.600 71.400 C 73.600 71.070,73.420 70.800,73.200 70.800 C 72.980 70.800,72.800 71.070,72.800 71.400 M69.701 122.200 C 69.705 123.080,69.787 123.393,69.883 122.895 C 69.979 122.398,69.975 121.678,69.875 121.295 C 69.775 120.913,69.696 121.320,69.701 122.200 M68.800 135.200 C 68.800 136.300,68.980 137.200,69.200 137.200 C 69.420 137.200,69.600 136.300,69.600 135.200 C 69.600 134.100,69.420 133.200,69.200 133.200 C 68.980 133.200,68.800 134.100,68.800 135.200 M328.400 136.176 C 328.400 136.713,328.580 137.264,328.800 137.400 C 329.033 137.544,329.200 137.137,329.200 136.424 C 329.200 135.751,329.020 135.200,328.800 135.200 C 328.580 135.200,328.400 135.639,328.400 136.176 M68.406 155.700 C 68.411 156.686,68.506 156.855,68.800 156.400 C 69.308 155.614,69.308 154.400,68.800 154.400 C 68.580 154.400,68.403 154.985,68.406 155.700 M68.150 188.200 C 68.151 190.620,68.216 191.558,68.296 190.285 C 68.376 189.012,68.375 187.032,68.294 185.885 C 68.214 184.738,68.149 185.780,68.150 188.200 M58.230 224.052 C 57.807 224.463,57.649 224.800,57.881 224.800 C 58.343 224.800,59.409 223.665,59.157 223.442 C 59.071 223.366,58.654 223.640,58.230 224.052 M50.792 231.010 C 50.044 231.911,50.478 232.015,51.370 231.148 C 51.793 230.737,51.951 230.400,51.719 230.400 C 51.487 230.400,51.070 230.674,50.792 231.010 M180.700 241.089 C 181.415 241.178,182.585 241.178,183.300 241.089 C 184.015 241.001,183.430 240.928,182.000 240.928 C 180.570 240.928,179.985 241.001,180.700 241.089 M29.702 251.985 C 29.298 252.632,29.311 252.732,29.775 252.554 C 30.380 252.322,30.967 251.200,30.484 251.200 C 30.323 251.200,29.972 251.553,29.702 251.985 M369.443 251.769 C 369.564 252.082,369.915 252.435,370.225 252.554 C 370.689 252.732,370.702 252.632,370.298 251.985 C 369.732 251.080,369.119 250.925,369.443 251.769 M298.267 253.847 C 298.230 253.872,245.460 254.000,181.000 254.131 C 79.747 254.337,36.140 254.597,35.685 254.996 C 35.622 255.051,36.109 262.095,36.767 270.648 C 37.426 279.202,38.154 290.250,38.386 295.200 C 39.157 311.668,39.045 310.902,41.064 313.520 C 44.460 317.926,45.436 319.034,49.600 323.206 C 57.330 330.949,58.295 335.384,54.121 343.982 C 53.031 346.225,52.716 350.320,53.553 351.354 C 55.679 353.981,56.629 367.110,55.061 372.200 C 52.875 379.296,47.164 387.533,41.320 392.018 L 40.040 393.000 39.613 411.400 C 39.146 431.497,39.040 478.336,39.450 482.755 L 39.707 485.518 42.154 485.746 C 44.713 485.985,48.638 486.147,67.800 486.809 C 74.180 487.030,86.150 487.477,94.400 487.803 C 161.701 490.461,270.029 489.242,306.000 485.420 C 308.970 485.105,313.830 484.652,316.800 484.415 C 319.770 484.177,323.280 483.800,324.600 483.576 C 325.920 483.352,329.790 482.832,333.200 482.422 C 339.487 481.665,347.863 480.355,352.159 479.456 L 354.517 478.963 354.432 472.846 C 354.386 469.481,354.277 466.520,354.191 466.264 C 353.877 465.330,352.934 432.460,352.407 404.108 C 352.050 384.860,352.016 384.400,350.932 384.400 C 345.827 384.400,340.191 376.278,338.594 366.617 C 338.179 364.107,338.344 354.631,338.868 350.851 C 339.635 345.323,339.378 340.927,338.206 339.534 C 337.271 338.423,337.244 338.199,337.266 331.695 C 337.294 323.182,338.165 321.288,343.200 318.795 C 344.190 318.305,346.272 316.935,347.828 315.752 C 349.383 314.568,350.868 313.600,351.128 313.600 C 351.444 313.600,351.623 312.577,351.670 310.500 C 351.708 308.795,351.767 306.860,351.800 306.200 C 351.833 305.540,351.988 300.950,352.144 296.000 C 352.586 281.968,353.184 269.795,353.656 265.200 C 353.893 262.890,354.146 260.370,354.217 259.600 C 354.289 258.830,354.471 257.190,354.622 255.956 L 354.897 253.713 326.616 253.756 C 311.061 253.780,298.305 253.821,298.267 253.847 M4.000 319.800 C 4.000 321.010,4.180 322.000,4.400 322.000 C 4.620 322.000,4.800 321.010,4.800 319.800 C 4.800 318.590,4.620 317.600,4.400 317.600 C 4.180 317.600,4.000 318.590,4.000 319.800 M387.330 340.663 C 387.475 340.808,387.393 341.168,387.148 341.463 C 386.820 341.858,386.821 342.000,387.151 342.000 C 387.398 342.000,387.600 341.925,387.600 341.833 C 387.600 341.741,387.709 341.381,387.843 341.033 C 387.986 340.660,387.876 340.400,387.576 340.400 C 387.296 340.400,387.185 340.518,387.330 340.663 M353.301 383.000 C 353.305 383.880,353.387 384.193,353.483 383.695 C 353.579 383.198,353.575 382.478,353.475 382.095 C 353.375 381.713,353.296 382.120,353.301 383.000 M354.006 427.700 C 354.009 428.195,354.187 428.870,354.400 429.200 C 354.688 429.646,354.789 429.416,354.794 428.300 C 354.797 427.475,354.620 426.800,354.400 426.800 C 354.180 426.800,354.003 427.205,354.006 427.700 M37.724 433.400 C 37.726 434.720,37.801 435.212,37.890 434.493 C 37.979 433.774,37.977 432.694,37.886 432.093 C 37.795 431.492,37.722 432.080,37.724 433.400 M37.709 472.400 C 37.709 473.390,37.787 473.795,37.882 473.300 C 37.978 472.805,37.978 471.995,37.882 471.500 C 37.787 471.005,37.709 471.410,37.709 472.400 M140.505 490.287 C 141.114 490.379,142.014 490.377,142.505 490.282 C 142.997 490.187,142.500 490.111,141.400 490.114 C 140.300 490.117,139.897 490.195,140.505 490.287 M230.900 490.276 C 231.285 490.376,231.915 490.376,232.300 490.276 C 232.685 490.175,232.370 490.093,231.600 490.093 C 230.830 490.093,230.515 490.175,230.900 490.276 " stroke="none" fill="#eff0f0" fill-rule="evenodd"></path><path id="path3" d="M186.400 0.429 C 181.275 0.815,176.079 1.536,175.000 2.013 C 174.560 2.207,172.310 2.752,170.000 3.224 C 167.690 3.696,165.710 4.202,165.600 4.348 C 165.490 4.493,164.140 4.940,162.600 5.341 C 161.060 5.742,159.620 6.219,159.400 6.401 C 159.180 6.583,157.830 7.134,156.400 7.625 C 154.970 8.116,153.710 8.639,153.600 8.787 C 153.490 8.934,152.590 9.367,151.600 9.748 C 149.089 10.716,145.427 12.540,145.265 12.904 C 145.191 13.071,144.246 13.588,143.165 14.053 C 142.084 14.518,141.200 15.017,141.200 15.162 C 141.200 15.306,140.705 15.642,140.100 15.909 C 138.951 16.415,136.675 17.925,135.533 18.941 C 135.167 19.267,134.762 19.428,134.633 19.300 C 134.505 19.172,134.400 19.277,134.400 19.533 C 134.400 19.790,134.143 20.000,133.829 20.000 C 133.515 20.000,132.904 20.450,132.471 21.000 C 132.039 21.550,131.529 22.000,131.338 22.000 C 131.148 22.000,130.499 22.457,129.896 23.016 C 129.293 23.575,128.800 23.944,128.800 23.835 C 128.800 23.727,128.324 24.080,127.742 24.619 C 127.159 25.159,126.519 25.600,126.318 25.600 C 126.117 25.600,126.064 25.780,126.200 26.000 C 126.336 26.220,126.244 26.400,125.995 26.400 C 125.746 26.400,123.934 28.005,121.968 29.967 C 118.411 33.517,118.388 33.532,116.980 33.144 C 115.346 32.692,111.308 33.653,110.953 34.577 C 110.839 34.876,110.442 35.226,110.072 35.355 C 109.703 35.484,108.860 35.919,108.200 36.323 C 107.540 36.727,105.425 37.400,103.500 37.819 C 101.575 38.238,100.000 38.714,100.000 38.878 C 100.000 39.041,99.712 39.064,99.360 38.929 C 99.007 38.794,98.602 38.845,98.460 39.043 C 98.317 39.241,97.165 39.747,95.900 40.167 C 94.635 40.586,93.600 41.041,93.600 41.178 C 93.600 41.314,92.774 41.669,91.765 41.967 C 90.755 42.265,89.630 42.805,89.265 43.167 C 88.899 43.529,88.060 44.089,87.400 44.412 C 86.740 44.736,85.853 45.313,85.429 45.695 C 85.006 46.078,84.331 46.495,83.929 46.622 C 83.528 46.750,83.200 47.112,83.200 47.427 C 83.200 47.742,83.013 48.000,82.784 48.000 C 82.326 48.000,78.955 51.310,79.170 51.549 C 79.244 51.631,78.851 52.179,78.296 52.767 C 77.741 53.355,76.986 54.723,76.618 55.808 C 76.250 56.893,75.810 57.965,75.640 58.190 C 75.205 58.769,74.463 62.517,74.153 65.700 C 74.008 67.185,73.710 68.400,73.490 68.400 C 73.248 68.400,73.187 69.097,73.334 70.171 C 73.467 71.144,73.417 71.999,73.223 72.071 C 73.028 72.142,72.548 77.150,72.156 83.200 C 71.764 89.250,71.326 94.290,71.184 94.400 C 70.892 94.625,70.109 112.284,69.725 127.300 C 69.584 132.835,69.311 137.200,69.106 137.200 C 68.893 137.200,68.774 141.085,68.820 146.500 C 68.863 151.615,68.797 156.250,68.672 156.800 C 68.248 158.672,67.992 210.400,68.408 210.400 C 68.623 210.400,68.800 210.166,68.800 209.880 C 68.800 206.574,78.338 198.621,84.287 196.968 L 86.771 196.277 88.354 191.638 C 89.224 189.087,90.576 185.252,91.357 183.116 C 94.903 173.416,95.708 156.934,93.686 135.400 C 92.495 122.709,91.847 106.817,92.316 101.800 L 92.690 97.800 92.745 101.800 C 92.896 112.662,95.771 131.663,97.888 135.775 C 98.748 137.447,102.285 142.669,103.560 144.149 C 106.232 147.251,108.615 149.470,111.992 152.000 C 112.726 152.550,113.523 153.180,113.763 153.400 C 114.841 154.387,118.805 157.175,120.900 158.420 C 122.165 159.172,123.200 159.925,123.200 160.093 C 123.200 160.262,123.380 160.400,123.600 160.400 C 124.234 160.400,124.071 159.872,123.100 158.781 C 116.510 151.383,110.543 138.291,107.651 124.888 C 102.761 102.219,104.693 81.900,113.423 64.181 C 115.961 59.028,115.914 59.240,114.500 59.311 C 107.840 59.646,106.021 58.019,105.715 51.454 C 105.316 42.907,106.113 41.800,112.665 41.800 C 118.429 41.800,119.957 42.417,120.063 44.786 C 120.154 46.798,119.997 50.392,119.758 51.800 L 119.554 53.000 120.877 51.553 C 121.605 50.757,123.190 48.885,124.400 47.394 C 131.080 39.159,140.265 31.625,149.487 26.814 C 151.747 25.635,153.463 24.502,153.325 24.279 C 153.188 24.058,153.269 23.996,153.505 24.141 C 154.192 24.566,158.952 22.352,158.323 21.900 C 157.956 21.637,158.033 21.601,158.581 21.781 C 159.441 22.063,164.100 20.485,163.807 20.011 C 163.706 19.849,164.114 19.794,164.712 19.889 C 165.594 20.030,165.686 19.976,165.200 19.605 C 164.698 19.222,164.731 19.181,165.400 19.352 C 165.840 19.464,167.730 19.141,169.600 18.633 C 171.709 18.061,172.696 17.637,172.200 17.519 C 171.760 17.413,172.120 17.339,173.000 17.353 C 173.880 17.367,176.310 17.069,178.400 16.692 C 192.332 14.176,205.911 14.872,220.046 18.828 C 222.382 19.481,224.632 19.905,225.046 19.770 C 225.588 19.594,225.652 19.631,225.272 19.903 C 224.567 20.409,229.126 22.139,230.219 21.781 C 230.752 21.606,230.838 21.641,230.490 21.892 C 229.883 22.330,234.648 24.541,235.313 24.130 C 235.539 23.991,235.614 24.055,235.479 24.272 C 235.171 24.771,237.902 26.108,238.489 25.745 C 238.768 25.572,238.807 25.666,238.596 26.006 C 238.359 26.390,238.451 26.466,238.930 26.282 C 239.293 26.143,239.548 26.185,239.495 26.376 C 239.443 26.568,241.380 27.928,243.800 29.399 C 268.727 44.551,283.609 70.800,283.598 99.598 C 283.590 121.664,278.362 141.522,269.005 155.038 C 267.572 157.107,266.496 158.800,266.613 158.800 C 267.716 158.800,279.050 147.770,282.705 143.141 C 300.750 120.280,305.265 97.114,296.861 70.500 C 295.624 66.583,295.669 65.988,297.043 68.103 C 300.463 73.365,302.560 79.187,304.355 88.400 C 304.805 90.710,305.641 94.940,306.214 97.800 C 308.860 111.011,307.779 124.908,302.604 144.217 C 295.561 170.493,293.183 184.016,295.047 187.173 C 296.353 189.383,304.438 191.788,312.600 192.394 C 319.327 192.893,326.485 196.025,329.200 199.657 C 329.576 200.159,329.211 138.215,328.833 137.400 C 328.629 136.960,328.358 129.850,328.229 121.600 C 327.969 104.850,327.283 85.317,326.923 84.400 C 326.793 84.070,326.720 82.360,326.760 80.600 C 326.805 78.618,326.696 77.601,326.475 77.928 C 326.248 78.264,326.017 76.980,325.838 74.387 C 325.500 69.483,324.963 66.403,324.184 64.910 C 323.866 64.300,323.604 63.567,323.602 63.283 C 323.600 62.772,323.260 62.270,321.900 60.771 C 321.515 60.347,321.200 59.822,321.200 59.603 C 321.200 59.385,320.840 58.982,320.400 58.707 C 319.960 58.432,319.600 57.995,319.600 57.735 C 319.600 57.474,319.015 56.677,318.300 55.962 C 317.585 55.247,317.000 54.545,317.000 54.402 C 317.000 54.017,315.712 52.800,315.305 52.800 C 314.827 52.800,312.400 50.400,312.400 49.929 C 312.400 49.722,312.232 49.657,312.026 49.784 C 311.820 49.911,311.207 49.607,310.664 49.108 C 308.991 47.570,308.495 47.239,308.243 47.491 C 308.109 47.624,308.000 47.535,308.000 47.293 C 308.000 47.050,307.370 46.624,306.600 46.346 C 305.830 46.067,305.200 45.665,305.200 45.453 C 305.200 45.241,305.091 45.176,304.957 45.309 C 304.824 45.443,304.362 45.223,303.930 44.820 C 303.498 44.418,302.607 43.981,301.949 43.850 C 301.292 43.718,300.486 43.343,300.159 43.016 C 299.832 42.689,298.807 42.219,297.882 41.971 C 296.957 41.724,295.992 41.352,295.739 41.144 C 295.301 40.785,293.467 40.147,291.859 39.793 C 291.452 39.704,290.869 39.423,290.564 39.170 C 290.260 38.917,289.750 38.811,289.431 38.933 C 289.112 39.055,288.795 39.019,288.726 38.853 C 288.657 38.687,287.206 38.249,285.503 37.879 C 283.675 37.482,282.082 36.882,281.613 36.413 C 281.177 35.977,280.367 35.507,279.813 35.368 C 279.242 35.224,278.919 34.930,279.068 34.689 C 279.233 34.423,279.082 34.360,278.666 34.519 C 278.300 34.660,278.000 34.623,278.000 34.437 C 278.000 34.252,277.505 33.997,276.900 33.870 C 276.229 33.730,274.395 32.230,272.200 30.027 C 270.220 28.040,268.485 26.411,268.345 26.407 C 268.204 26.403,267.268 25.590,266.264 24.600 C 265.259 23.610,264.274 22.800,264.073 22.800 C 263.873 22.800,263.280 22.386,262.755 21.881 C 261.519 20.690,258.001 18.199,257.100 17.876 C 256.715 17.738,256.400 17.452,256.400 17.240 C 256.400 17.027,255.995 16.731,255.500 16.581 C 255.005 16.430,254.032 15.882,253.337 15.361 C 252.642 14.841,251.202 14.062,250.137 13.630 C 249.072 13.197,248.371 12.834,248.581 12.822 C 248.790 12.810,247.440 12.054,245.581 11.143 C 243.721 10.231,242.110 9.498,242.000 9.514 C 241.890 9.529,241.260 9.217,240.600 8.820 C 239.940 8.423,238.410 7.780,237.200 7.390 C 235.990 7.001,234.910 6.557,234.800 6.405 C 234.690 6.252,233.340 5.795,231.800 5.388 C 230.260 4.982,228.883 4.477,228.741 4.267 C 228.598 4.057,228.103 3.984,227.641 4.105 C 227.178 4.226,226.800 4.186,226.800 4.015 C 226.800 3.844,225.090 3.383,223.000 2.990 C 220.910 2.596,219.200 2.157,219.200 2.013 C 219.200 1.729,213.504 0.987,206.800 0.397 C 201.893 -0.035,192.381 -0.020,186.400 0.429 M184.548 39.376 C 183.859 39.676,183.189 40.094,183.059 40.305 C 182.928 40.516,183.537 40.335,184.411 39.903 C 186.615 38.812,186.714 38.434,184.548 39.376 M223.500 39.882 C 223.995 39.978,224.805 39.978,225.300 39.882 C 225.795 39.787,225.390 39.709,224.400 39.709 C 223.410 39.709,223.005 39.787,223.500 39.882 M227.300 40.276 C 227.685 40.376,228.315 40.376,228.700 40.276 C 229.085 40.175,228.770 40.093,228.000 40.093 C 227.230 40.093,226.915 40.175,227.300 40.276 M215.900 41.627 C 215.075 42.063,214.400 42.508,214.400 42.618 C 214.400 42.796,217.559 41.319,217.967 40.951 C 218.427 40.534,217.225 40.928,215.900 41.627 M107.989 43.077 C 106.691 43.965,106.413 44.402,106.406 45.570 L 106.400 46.539 107.343 45.654 C 107.861 45.167,108.941 44.662,109.743 44.532 C 110.778 44.364,111.200 44.091,111.200 43.590 C 111.200 42.317,109.497 42.045,107.989 43.077 M112.267 42.971 C 111.962 43.764,112.875 44.450,113.613 43.983 C 114.073 43.693,114.000 43.611,113.276 43.606 C 112.724 43.602,112.459 43.428,112.617 43.173 C 112.762 42.938,113.133 42.842,113.440 42.960 C 113.748 43.078,114.000 43.001,114.000 42.787 C 114.000 42.178,112.510 42.335,112.267 42.971 M110.700 43.500 C 110.802 43.804,110.501 44.001,109.933 44.002 C 109.420 44.004,108.505 44.263,107.900 44.579 C 106.664 45.223,106.435 44.842,107.500 43.914 C 108.822 42.763,110.387 42.560,110.700 43.500 M284.789 44.076 C 285.664 44.891,285.784 45.490,285.244 46.343 C 285.027 46.685,284.807 46.734,284.648 46.478 C 284.509 46.253,283.677 45.948,282.798 45.800 C 281.919 45.651,281.200 45.360,281.200 45.152 C 281.200 44.423,282.322 44.357,283.853 44.994 C 285.300 45.596,285.357 45.594,284.734 44.967 C 283.762 43.989,281.072 43.978,280.874 44.952 C 280.694 45.839,281.410 46.380,282.800 46.407 C 283.912 46.428,284.949 47.087,285.304 48.000 C 285.452 48.383,285.553 48.238,285.581 47.600 C 285.669 45.581,286.361 47.813,286.822 51.603 C 287.822 59.832,286.348 62.155,279.593 62.991 C 275.112 63.545,274.052 62.016,272.413 52.633 C 271.560 47.748,271.935 45.469,273.751 44.505 C 276.431 43.082,283.431 42.810,284.789 44.076 M293.200 44.888 C 297.718 46.315,300.552 47.473,305.400 49.872 C 311.643 52.962,311.710 52.929,299.839 52.673 C 287.859 52.415,288.780 52.779,287.861 47.937 C 287.499 46.033,287.086 44.168,286.942 43.793 C 286.618 42.949,287.613 43.124,293.200 44.888 M104.257 46.059 C 104.116 47.411,104.000 49.357,104.000 50.384 L 104.000 52.251 100.100 53.193 C 96.687 54.018,90.067 55.867,83.291 57.887 C 80.454 58.734,80.350 58.413,82.609 55.769 C 86.216 51.547,92.013 47.978,100.090 45.007 C 104.832 43.262,104.557 43.193,104.257 46.059 M277.800 44.800 C 277.437 45.387,277.939 46.000,278.781 46.000 C 279.522 46.000,280.147 45.080,279.706 44.639 C 279.324 44.257,278.070 44.363,277.800 44.800 M210.901 48.200 C 210.905 49.080,210.987 49.393,211.083 48.895 C 211.179 48.398,211.175 47.678,211.075 47.295 C 210.975 46.913,210.896 47.320,210.901 48.200 M182.198 48.337 C 182.634 48.852,183.353 49.459,183.796 49.686 C 184.645 50.121,184.521 49.987,182.603 48.394 C 181.448 47.435,181.434 47.433,182.198 48.337 M192.922 49.029 L 191.800 50.058 193.100 49.154 C 193.815 48.657,194.400 48.193,194.400 48.125 C 194.400 47.809,193.958 48.080,192.922 49.029 M187.305 50.687 C 187.914 50.779,188.814 50.777,189.305 50.682 C 189.797 50.587,189.300 50.511,188.200 50.514 C 187.100 50.517,186.697 50.595,187.305 50.687 M250.082 55.173 C 250.580 56.038,251.055 56.678,251.139 56.594 C 251.312 56.421,249.631 53.600,249.355 53.600 C 249.257 53.600,249.584 54.308,250.082 55.173 M222.000 55.541 C 222.330 55.734,223.140 56.009,223.800 56.152 C 224.568 56.318,224.784 56.284,224.400 56.059 C 224.070 55.866,223.260 55.591,222.600 55.448 C 221.832 55.282,221.616 55.316,222.000 55.541 M234.800 59.800 C 235.350 60.114,235.980 60.372,236.200 60.372 C 236.420 60.372,236.150 60.114,235.600 59.800 C 235.050 59.486,234.420 59.228,234.200 59.228 C 233.980 59.228,234.250 59.486,234.800 59.800 M238.433 61.330 C 238.525 61.401,239.230 61.866,240.000 62.363 L 241.400 63.266 240.200 62.235 C 239.540 61.668,238.835 61.203,238.633 61.202 C 238.432 61.201,238.342 61.258,238.433 61.330 M253.640 62.938 C 253.575 63.493,254.860 67.674,255.040 67.493 C 255.132 67.402,254.863 66.263,254.443 64.964 C 254.023 63.664,253.662 62.752,253.640 62.938 M256.101 75.000 C 256.105 75.880,256.187 76.193,256.283 75.695 C 256.379 75.198,256.375 74.478,256.275 74.095 C 256.175 73.713,256.096 74.120,256.101 75.000 M253.499 78.368 C 254.103 79.450,254.665 80.268,254.747 80.186 C 254.921 80.012,252.857 76.400,252.583 76.400 C 252.483 76.400,252.895 77.286,253.499 78.368 M256.330 80.441 C 256.259 82.224,256.312 83.863,256.450 84.084 C 256.587 84.304,256.729 82.845,256.766 80.842 C 256.848 76.329,256.509 76.017,256.330 80.441 M274.600 193.223 C 270.052 193.816,269.497 193.957,268.650 194.730 C 268.183 195.157,267.209 195.805,266.487 196.170 C 265.717 196.560,265.288 197.018,265.449 197.279 C 265.613 197.545,265.542 197.611,265.270 197.443 C 264.702 197.092,263.099 197.912,263.400 198.400 C 263.522 198.598,263.269 198.949,262.837 199.180 C 261.648 199.817,261.255 199.655,262.400 199.000 C 264.261 197.936,262.921 198.392,259.604 199.951 C 257.790 200.804,256.461 201.584,256.653 201.685 C 256.844 201.786,256.748 201.804,256.440 201.724 C 255.488 201.478,252.279 202.874,252.878 203.275 C 253.196 203.488,252.947 203.519,252.240 203.354 C 251.366 203.150,251.157 203.207,251.390 203.585 C 251.613 203.945,251.481 204.016,250.917 203.837 C 250.486 203.700,249.338 203.872,248.367 204.218 C 245.681 205.176,237.178 207.199,235.810 207.206 C 234.995 207.210,234.774 207.323,235.134 207.551 C 235.444 207.747,234.790 207.805,233.575 207.688 C 231.927 207.530,231.551 207.597,231.804 208.006 C 232.054 208.411,231.792 208.471,230.613 208.280 C 229.782 208.145,225.839 208.305,221.851 208.635 C 207.817 209.797,203.265 209.983,188.600 209.991 C 174.064 209.999,161.305 209.523,157.385 208.825 C 156.293 208.631,153.690 208.181,151.600 207.825 C 149.510 207.469,146.764 206.823,145.498 206.389 C 144.233 205.955,142.934 205.600,142.612 205.600 C 141.996 205.600,138.757 204.608,137.400 204.003 C 136.960 203.807,135.250 203.072,133.600 202.370 C 130.182 200.914,126.947 199.242,125.316 198.087 C 124.702 197.653,123.390 197.165,122.400 197.002 C 121.410 196.840,120.266 196.532,119.858 196.317 C 116.447 194.523,107.186 196.545,103.598 199.866 C 100.971 202.298,100.946 202.305,98.679 201.130 C 97.756 200.651,96.522 200.021,95.938 199.730 C 93.438 198.482,86.638 199.318,82.198 201.418 C 80.413 202.263,74.883 206.800,75.638 206.800 C 75.769 206.800,76.939 206.433,78.238 205.985 C 83.866 204.042,92.595 204.836,96.125 207.613 C 96.657 208.031,97.207 208.260,97.346 208.120 C 97.734 207.733,97.675 208.067,96.620 212.284 C 94.704 219.936,93.601 231.960,93.600 245.200 L 93.600 253.000 114.500 252.889 C 139.562 252.757,138.117 252.823,138.215 251.800 C 139.609 237.368,142.342 231.531,148.322 230.217 C 149.032 230.061,149.477 229.746,149.373 229.473 C 149.254 229.163,149.711 228.990,150.696 228.970 C 153.112 228.922,160.076 227.983,161.600 227.500 C 162.564 227.194,169.547 227.078,184.000 227.125 C 195.550 227.164,212.209 227.029,221.020 226.827 C 246.971 226.231,259.200 227.460,259.200 230.664 C 259.200 230.959,259.446 231.200,259.747 231.200 C 260.851 231.200,263.200 235.734,263.200 237.865 C 263.200 238.385,263.359 239.123,263.553 239.505 C 264.237 240.852,264.771 243.937,265.040 248.096 L 265.311 252.300 285.556 252.490 C 296.690 252.594,305.917 252.572,306.060 252.440 C 306.349 252.172,305.852 245.412,305.203 240.800 C 304.971 239.150,303.384 232.183,301.676 225.317 C 298.205 211.366,298.229 212.230,301.215 208.782 C 302.316 207.512,303.078 206.395,302.908 206.302 C 302.739 206.208,302.853 206.197,303.162 206.277 C 303.471 206.357,304.101 206.077,304.562 205.655 C 307.792 202.694,314.522 201.394,320.296 202.616 C 323.361 203.265,323.311 203.266,323.055 202.600 C 322.912 202.228,322.975 202.061,323.205 202.203 C 323.422 202.337,323.600 202.701,323.600 203.012 C 323.600 203.322,324.635 204.062,325.900 204.655 C 327.165 205.248,328.325 205.923,328.478 206.155 C 329.195 207.241,329.054 206.021,328.331 204.879 C 327.669 203.833,327.397 203.670,326.944 204.046 C 326.634 204.304,326.250 204.374,326.090 204.202 C 325.931 204.031,326.025 203.810,326.300 203.712 C 326.575 203.614,326.800 203.268,326.800 202.943 C 326.800 202.606,326.606 202.473,326.348 202.632 C 326.081 202.797,325.967 202.698,326.070 202.390 C 326.831 200.107,316.222 194.846,311.871 195.347 C 308.319 195.756,302.431 198.236,300.283 200.228 C 299.706 200.763,299.082 201.200,298.894 201.200 C 298.707 201.200,298.025 201.903,297.378 202.763 C 296.008 204.584,295.809 204.530,294.648 202.025 C 292.676 197.769,290.182 194.785,287.326 193.265 C 286.346 192.743,278.473 192.717,274.600 193.223 M320.000 198.000 C 320.000 198.220,319.730 198.400,319.400 198.400 C 319.070 198.400,318.800 198.220,318.800 198.000 C 318.800 197.780,319.070 197.600,319.400 197.600 C 319.730 197.600,320.000 197.780,320.000 198.000 M324.400 201.000 C 324.400 201.330,324.610 201.600,324.867 201.600 C 325.123 201.600,325.218 201.716,325.076 201.857 C 324.779 202.155,323.600 201.272,323.600 200.751 C 323.600 200.558,323.780 200.400,324.000 200.400 C 324.220 200.400,324.400 200.670,324.400 201.000 M131.687 202.305 C 132.121 202.828,131.999 202.820,130.900 202.252 C 130.185 201.882,129.600 201.511,129.600 201.427 C 129.600 201.062,131.221 201.744,131.687 202.305 M300.216 201.973 C 300.071 202.208,299.659 202.400,299.300 202.400 C 298.754 202.400,298.774 202.307,299.423 201.833 C 300.261 201.220,300.640 201.287,300.216 201.973 M312.800 201.355 C 312.800 201.440,312.260 201.588,311.600 201.685 C 310.940 201.782,310.400 201.713,310.400 201.531 C 310.400 201.349,310.940 201.200,311.600 201.200 C 312.260 201.200,312.800 201.270,312.800 201.355 M302.400 201.986 C 302.400 202.198,302.032 202.569,301.582 202.810 C 300.826 203.214,300.803 203.185,301.278 202.424 C 301.819 201.558,302.400 201.331,302.400 201.986 M309.500 202.276 C 309.115 202.376,308.485 202.376,308.100 202.276 C 307.715 202.175,308.030 202.093,308.800 202.093 C 309.570 202.093,309.885 202.175,309.500 202.276 M331.613 202.656 C 331.631 203.144,332.757 204.576,332.961 204.371 C 333.055 204.277,332.787 203.775,332.366 203.256 C 331.945 202.736,331.606 202.466,331.613 202.656 M81.263 203.441 C 80.760 203.793,80.230 203.963,80.086 203.819 C 79.765 203.498,80.779 202.815,81.589 202.806 C 81.969 202.802,81.853 203.028,81.263 203.441 M129.200 207.280 C 129.200 207.926,129.082 208.042,128.755 207.715 C 128.510 207.470,128.431 207.074,128.578 206.835 C 128.992 206.165,129.200 206.314,129.200 207.280 M127.732 208.300 C 127.465 209.067,126.454 210.000,125.890 210.000 C 125.693 210.000,126.042 209.460,126.665 208.800 C 127.985 207.401,128.056 207.368,127.732 208.300 M157.319 210.441 C 157.085 210.675,156.467 210.787,155.946 210.688 C 155.078 210.524,155.090 210.504,156.100 210.454 C 156.705 210.425,157.200 210.190,157.200 209.933 C 157.200 209.677,157.323 209.590,157.473 209.740 C 157.624 209.890,157.554 210.206,157.319 210.441 M160.200 210.800 C 160.336 211.020,160.077 211.200,159.624 211.200 C 159.171 211.200,158.800 211.020,158.800 210.800 C 158.800 210.580,159.059 210.400,159.376 210.400 C 159.693 210.400,160.064 210.580,160.200 210.800 M178.700 210.676 C 178.315 210.776,177.685 210.776,177.300 210.676 C 176.915 210.575,177.230 210.493,178.000 210.493 C 178.770 210.493,179.085 210.575,178.700 210.676 M184.600 210.800 C 184.464 211.020,183.238 211.187,181.876 211.172 C 180.123 211.152,179.633 211.043,180.200 210.800 C 181.347 210.307,184.905 210.307,184.600 210.800 M67.273 211.800 C 67.022 212.350,66.883 212.800,66.963 212.800 C 67.043 212.800,67.403 212.350,67.763 211.800 C 68.124 211.250,68.263 210.800,68.073 210.800 C 67.884 210.800,67.523 211.250,67.273 211.800 M265.029 212.811 C 265.624 213.037,266.017 213.316,265.902 213.431 C 265.787 213.546,265.087 213.376,264.347 213.053 C 262.815 212.385,263.381 212.185,265.029 212.811 M270.800 214.716 C 270.910 214.824,270.460 214.784,269.800 214.628 C 269.140 214.471,268.424 214.171,268.209 213.961 C 267.994 213.750,268.444 213.790,269.209 214.049 C 269.974 214.307,270.690 214.607,270.800 214.716 M336.800 218.000 C 336.800 218.440,336.980 218.800,337.200 218.800 C 337.420 218.800,337.600 218.440,337.600 218.000 C 337.600 217.560,337.420 217.200,337.200 217.200 C 336.980 217.200,336.800 217.560,336.800 218.000 M64.400 218.586 C 64.400 218.908,64.011 219.380,63.535 219.635 C 63.060 219.889,61.642 221.155,60.384 222.449 C 59.127 223.742,57.885 224.800,57.625 224.800 C 57.365 224.800,57.264 224.980,57.400 225.200 C 57.536 225.420,57.438 225.600,57.183 225.600 C 56.928 225.600,54.982 227.304,52.859 229.387 C 40.397 241.614,30.245 251.808,27.800 254.549 C 26.260 256.276,24.505 258.222,23.900 258.875 C 23.295 259.528,22.800 260.176,22.800 260.316 C 22.800 260.456,22.336 261.027,21.770 261.585 C 20.288 263.044,17.600 266.637,17.600 267.157 C 17.600 267.401,17.450 267.600,17.268 267.600 C 17.085 267.600,16.683 268.071,16.375 268.647 C 16.066 269.223,15.451 269.845,15.007 270.030 C 14.506 270.238,15.034 270.286,16.400 270.156 C 18.947 269.913,26.168 271.073,31.572 272.592 C 36.018 273.842,36.022 273.842,35.790 272.500 C 35.597 271.388,34.400 255.860,34.400 254.476 C 34.400 253.762,35.102 253.714,49.265 253.447 C 65.840 253.135,64.877 253.259,64.366 251.495 C 62.038 243.451,62.420 225.468,65.065 218.575 C 65.186 218.259,65.086 218.000,64.843 218.000 C 64.599 218.000,64.400 218.264,64.400 218.586 M337.186 225.700 C 337.170 231.675,336.664 235.039,334.822 241.398 C 333.750 245.101,333.045 247.068,330.918 252.300 C 330.758 252.694,333.401 252.800,343.357 252.800 L 356.000 252.800 356.000 254.145 C 356.000 254.885,355.834 256.370,355.631 257.445 C 355.154 259.973,353.848 277.182,354.114 277.447 C 354.225 277.558,356.174 276.717,358.445 275.577 C 367.871 270.847,376.591 268.111,383.800 267.622 C 388.039 267.334,388.086 267.321,385.100 267.261 C 383.054 267.221,382.000 267.043,382.000 266.737 C 382.000 266.213,378.917 262.047,378.000 261.332 C 377.670 261.075,377.400 260.700,377.400 260.500 C 377.400 260.299,376.770 259.505,376.000 258.735 C 375.230 257.965,373.430 256.002,372.000 254.372 C 368.004 249.818,351.089 232.824,350.300 232.571 C 349.915 232.447,349.600 232.088,349.600 231.773 C 349.600 231.458,349.454 231.200,349.275 231.200 C 349.096 231.200,347.395 229.715,345.495 227.900 C 340.051 222.700,337.559 220.400,337.373 220.400 C 337.278 220.400,337.194 222.785,337.186 225.700 M116.800 221.000 C 116.800 221.110,116.440 221.560,116.000 222.000 C 115.114 222.886,114.987 222.746,115.614 221.574 C 115.984 220.882,116.800 220.487,116.800 221.000 M277.357 223.033 C 277.507 223.423,277.418 223.606,277.125 223.508 C 276.527 223.309,276.198 222.400,276.724 222.400 C 276.939 222.400,277.224 222.685,277.357 223.033 M176.600 225.600 C 176.464 225.820,175.654 226.000,174.800 226.000 C 173.946 226.000,173.136 225.820,173.000 225.600 C 172.847 225.353,173.537 225.200,174.800 225.200 C 176.063 225.200,176.753 225.353,176.600 225.600 M280.000 226.400 C 280.636 227.294,280.711 227.600,280.291 227.600 C 279.982 227.600,279.520 227.142,279.264 226.581 C 278.436 224.764,278.775 224.680,280.000 226.400 M218.100 225.895 C 216.945 225.976,215.055 225.976,213.900 225.895 C 212.745 225.814,213.690 225.748,216.000 225.748 C 218.310 225.748,219.255 225.814,218.100 225.895 M227.107 225.886 C 226.506 225.977,225.426 225.979,224.707 225.890 C 223.988 225.801,224.480 225.726,225.800 225.724 C 227.120 225.722,227.708 225.795,227.107 225.886 M152.705 228.275 C 152.322 228.375,151.602 228.379,151.105 228.283 C 150.607 228.187,150.920 228.105,151.800 228.101 C 152.680 228.096,153.087 228.175,152.705 228.275 M147.000 230.000 C 146.864 230.220,146.483 230.400,146.153 230.400 C 145.823 230.400,145.664 230.220,145.800 230.000 C 145.936 229.780,146.317 229.600,146.647 229.600 C 146.977 229.600,147.136 229.780,147.000 230.000 M283.462 235.110 C 283.039 235.532,282.800 235.596,282.800 235.286 C 282.800 235.019,282.976 234.800,283.190 234.800 C 283.444 234.800,283.444 234.441,283.190 233.774 C 282.564 232.128,282.758 231.678,283.471 233.124 C 284.075 234.351,284.075 234.497,283.462 235.110 M285.600 233.600 C 286.070 234.260,286.301 234.800,286.113 234.800 C 285.926 234.800,285.454 234.260,285.064 233.600 C 284.674 232.940,284.443 232.400,284.550 232.400 C 284.658 232.400,285.130 232.940,285.600 233.600 M195.600 233.207 C 158.377 233.648,156.022 234.436,153.845 247.170 C 152.823 253.144,152.528 252.649,157.300 252.945 C 159.555 253.085,161.760 253.124,162.200 253.030 C 162.640 252.937,163.901 252.847,165.002 252.831 L 167.005 252.800 167.999 250.700 C 168.546 249.545,168.995 248.330,168.997 248.000 C 168.999 247.670,169.181 247.430,169.401 247.466 C 170.038 247.571,170.820 246.748,170.705 246.092 C 170.647 245.761,170.924 245.440,171.320 245.378 C 172.290 245.226,173.244 244.395,172.966 243.945 C 172.842 243.744,172.889 243.620,173.070 243.669 C 173.817 243.871,175.308 243.114,174.792 242.795 C 174.449 242.583,174.598 242.475,175.239 242.472 C 176.828 242.463,180.658 241.360,180.000 241.100 C 179.670 240.970,180.570 240.852,182.000 240.838 C 183.932 240.819,184.446 240.921,184.000 241.234 C 183.539 241.559,183.700 241.620,184.690 241.499 C 185.400 241.412,186.030 241.445,186.090 241.571 C 186.334 242.081,189.287 243.195,189.727 242.942 C 189.987 242.794,190.069 242.816,189.910 242.993 C 189.750 243.169,190.426 243.887,191.411 244.588 C 193.669 246.193,195.393 248.456,196.221 250.900 L 196.864 252.800 208.782 252.800 L 220.700 252.800 220.922 251.689 C 221.729 247.656,223.107 247.288,238.000 247.132 C 252.686 246.978,252.619 246.964,254.400 250.700 C 255.369 252.732,258.500 253.874,259.335 252.500 C 260.249 250.996,257.828 240.150,255.975 237.445 C 252.772 232.770,249.833 232.564,195.600 233.207 M138.485 236.800 C 138.582 237.460,138.513 238.000,138.331 238.000 C 138.149 238.000,138.000 237.460,138.000 236.800 C 138.000 236.140,138.070 235.600,138.155 235.600 C 138.240 235.600,138.388 236.140,138.485 236.800 M288.747 237.800 L 289.573 239.200 288.287 239.160 C 287.097 239.123,287.075 239.099,287.996 238.843 C 288.671 238.655,288.833 238.467,288.498 238.261 C 287.816 237.839,287.080 236.400,287.546 236.400 C 287.752 236.400,288.293 237.030,288.747 237.800 M103.926 242.202 C 103.675 242.753,103.416 243.150,103.351 243.084 C 103.108 242.841,103.706 241.200,104.038 241.200 C 104.228 241.200,104.177 241.651,103.926 242.202 M265.435 243.098 C 264.998 243.535,264.699 242.840,265.012 242.117 C 265.310 241.432,265.332 241.433,265.497 242.131 C 265.593 242.534,265.565 242.969,265.435 243.098 M291.946 242.300 C 292.257 242.881,292.141 243.008,291.260 243.049 C 290.677 243.077,290.425 243.017,290.700 242.916 C 290.975 242.816,291.200 242.478,291.200 242.167 C 291.200 241.401,291.493 241.453,291.946 242.300 M295.041 247.493 C 294.721 247.813,294.555 247.595,294.213 246.400 L 293.926 245.400 294.604 246.326 C 294.977 246.835,295.173 247.360,295.041 247.493 M296.799 250.344 C 296.798 250.735,296.474 250.470,295.999 249.690 C 294.983 248.025,294.991 247.517,296.013 248.744 C 296.446 249.264,296.799 249.984,296.799 250.344 M134.518 251.897 C 132.933 251.972,130.233 251.973,128.518 251.898 C 126.803 251.822,128.100 251.761,131.400 251.760 C 134.700 251.759,136.103 251.821,134.518 251.897 M140.309 253.961 C 141.689 254.092,177.869 254.109,220.709 253.998 L 298.600 253.796 218.200 253.759 C 173.980 253.739,138.929 253.830,140.309 253.961 M302.100 253.876 C 302.485 253.976,303.115 253.976,303.500 253.876 C 303.885 253.775,303.570 253.693,302.800 253.693 C 302.030 253.693,301.715 253.775,302.100 253.876 M312.274 253.899 C 316.055 253.965,322.355 253.965,326.274 253.899 C 330.193 253.834,327.100 253.780,319.400 253.780 C 311.700 253.780,308.493 253.834,312.274 253.899 M334.905 253.887 C 335.514 253.979,336.414 253.977,336.905 253.882 C 337.397 253.787,336.900 253.711,335.800 253.714 C 334.700 253.717,334.297 253.795,334.905 253.887 M41.300 254.299 L 35.200 254.421 35.240 256.310 C 35.261 257.350,35.431 259.190,35.616 260.400 C 35.886 262.160,35.917 261.833,35.773 258.764 L 35.593 254.929 48.896 254.666 C 56.213 254.522,75.507 254.401,91.772 254.397 C 108.036 254.393,121.431 254.302,121.538 254.195 C 121.740 253.993,52.109 254.084,41.300 254.299 M126.500 254.287 C 127.105 254.378,128.095 254.378,128.700 254.287 C 129.305 254.195,128.810 254.120,127.600 254.120 C 126.390 254.120,125.895 254.195,126.500 254.287 M354.312 257.618 C 354.214 258.287,354.283 258.928,354.467 259.041 C 354.650 259.155,354.800 258.607,354.800 257.824 C 354.800 256.079,354.553 255.975,354.312 257.618 M353.890 262.400 C 353.732 263.610,353.522 266.670,353.423 269.200 L 353.242 273.800 353.816 267.800 C 354.388 261.828,354.437 258.208,353.890 262.400 M36.114 265.000 C 36.117 266.100,36.195 266.503,36.287 265.895 C 36.379 265.286,36.377 264.386,36.282 263.895 C 36.187 263.403,36.111 263.900,36.114 265.000 M36.524 270.600 C 36.526 271.920,36.601 272.412,36.690 271.693 C 36.779 270.974,36.777 269.894,36.686 269.293 C 36.595 268.692,36.522 269.280,36.524 270.600 M392.800 268.603 C 392.800 268.895,395.764 271.577,396.100 271.589 C 396.855 271.616,396.249 270.848,394.600 269.685 C 393.610 268.987,392.800 268.500,392.800 268.603 M9.800 270.400 C 9.664 270.620,9.823 270.800,10.153 270.800 C 10.483 270.800,10.864 270.620,11.000 270.400 C 11.136 270.180,10.977 270.000,10.647 270.000 C 10.317 270.000,9.936 270.180,9.800 270.400 M7.600 270.800 C 7.600 271.020,7.870 271.200,8.200 271.200 C 8.530 271.200,8.800 271.020,8.800 270.800 C 8.800 270.580,8.530 270.400,8.200 270.400 C 7.870 270.400,7.600 270.580,7.600 270.800 M4.976 272.187 C 4.549 272.510,4.380 272.775,4.600 272.775 C 4.820 272.775,5.349 272.510,5.776 272.187 C 6.204 271.864,6.373 271.600,6.153 271.600 C 5.933 271.600,5.404 271.864,4.976 272.187 M383.827 272.734 C 383.293 272.960,383.200 273.153,383.527 273.355 C 383.787 273.516,384.184 273.533,384.410 273.394 C 384.635 273.255,384.771 273.289,384.711 273.470 C 384.652 273.652,385.079 274.430,385.661 275.200 C 387.807 278.038,388.724 280.180,389.483 284.132 C 389.602 284.754,389.952 285.360,390.260 285.478 C 390.627 285.619,390.691 285.850,390.444 286.147 C 390.237 286.397,389.986 288.041,389.887 289.801 C 389.788 291.560,389.638 293.355,389.554 293.789 C 389.342 294.877,392.778 295.169,394.271 294.190 C 398.556 291.383,395.931 275.133,390.875 273.162 C 389.538 272.640,384.734 272.349,383.827 272.734 M36.896 275.600 C 36.887 276.810,37.106 280.770,37.382 284.400 C 37.756 289.299,37.892 290.175,37.910 287.800 C 37.924 286.040,37.705 282.080,37.424 279.000 C 37.143 275.920,36.906 274.390,36.896 275.600 M389.200 274.486 C 389.200 274.706,388.915 274.776,388.567 274.643 C 388.219 274.509,387.849 274.400,387.744 274.400 C 387.639 274.400,387.659 274.228,387.789 274.017 C 388.076 273.553,389.200 273.926,389.200 274.486 M352.942 277.400 C 352.941 279.380,353.008 280.240,353.092 279.312 C 353.176 278.384,353.177 276.764,353.095 275.712 C 353.012 274.660,352.943 275.420,352.942 277.400 M9.296 275.734 C 5.103 277.254,4.020 279.316,3.719 286.341 C 3.311 295.893,4.364 298.322,8.721 297.872 C 11.422 297.594,11.305 297.770,10.596 295.051 C 9.626 291.324,9.808 285.505,11.005 281.985 C 12.092 278.790,12.128 277.224,11.057 279.749 C 10.696 280.601,10.400 281.456,10.400 281.649 C 10.400 281.842,10.220 282.000,10.000 282.000 C 9.398 282.000,9.520 280.938,10.200 280.257 C 10.530 279.927,10.800 279.374,10.800 279.029 C 10.800 278.683,11.025 278.373,11.300 278.339 C 11.575 278.306,11.994 278.258,12.230 278.232 C 12.467 278.207,13.250 277.515,13.972 276.693 L 15.283 275.200 12.941 275.230 C 11.654 275.247,10.013 275.474,9.296 275.734 M397.600 275.800 C 397.600 276.130,397.780 276.400,398.000 276.400 C 398.220 276.400,398.400 276.130,398.400 275.800 C 398.400 275.470,398.220 275.200,398.000 275.200 C 397.780 275.200,397.600 275.470,397.600 275.800 M11.200 276.643 C 11.200 276.729,10.705 276.797,10.100 276.794 C 9.299 276.789,9.153 276.691,9.564 276.431 C 10.073 276.108,11.200 276.254,11.200 276.643 M7.804 277.994 C 7.670 278.210,7.403 279.155,7.211 280.094 L 6.861 281.800 6.931 279.700 C 6.978 278.272,7.167 277.600,7.524 277.600 C 7.812 277.600,7.938 277.777,7.804 277.994 M8.478 281.979 C 7.915 282.541,7.881 282.504,8.122 281.600 C 8.269 281.050,8.412 280.060,8.441 279.400 C 8.487 278.327,8.524 278.367,8.796 279.779 C 9.027 280.978,8.950 281.507,8.478 281.979 M394.276 280.700 C 394.175 281.085,394.093 280.770,394.093 280.000 C 394.093 279.230,394.175 278.915,394.276 279.300 C 394.376 279.685,394.376 280.315,394.276 280.700 M393.621 283.020 C 393.427 283.669,393.253 283.900,393.234 283.533 C 393.196 282.788,393.623 281.490,393.836 281.703 C 393.912 281.778,393.815 282.371,393.621 283.020 M352.551 287.200 C 352.551 289.730,352.616 290.765,352.696 289.500 C 352.775 288.235,352.775 286.165,352.696 284.900 C 352.616 283.635,352.551 284.670,352.551 287.200 M391.680 285.280 C 391.307 285.653,391.200 285.547,391.200 284.800 C 391.200 284.053,391.307 283.947,391.680 284.320 C 392.053 284.693,392.053 284.907,391.680 285.280 M394.786 290.300 C 394.765 290.732,392.804 293.066,392.802 292.662 C 392.799 292.122,394.141 290.000,394.486 290.000 C 394.659 290.000,394.794 290.135,394.786 290.300 M38.134 294.000 C 38.134 295.650,38.205 296.325,38.291 295.500 C 38.378 294.675,38.378 293.325,38.291 292.500 C 38.205 291.675,38.134 292.350,38.134 294.000 M6.076 294.673 C 5.668 294.836,5.705 295.053,6.240 295.644 C 7.226 296.734,6.640 297.040,5.586 295.986 C 4.718 295.118,5.018 294.362,6.200 294.438 C 6.420 294.452,6.364 294.558,6.076 294.673 M10.400 296.200 C 10.400 296.530,10.220 296.800,10.000 296.800 C 9.780 296.800,9.600 296.530,9.600 296.200 C 9.600 295.870,9.780 295.600,10.000 295.600 C 10.220 295.600,10.400 295.870,10.400 296.200 M351.946 300.500 C 351.916 303.195,351.860 305.850,351.821 306.400 C 351.782 306.950,351.716 308.795,351.675 310.500 C 351.625 312.574,351.444 313.600,351.128 313.600 C 350.868 313.600,349.383 314.568,347.828 315.752 C 346.272 316.935,344.190 318.305,343.200 318.795 C 338.252 321.245,337.487 322.895,337.327 331.469 C 337.200 338.270,337.209 338.349,338.183 339.507 C 339.380 340.929,339.642 345.275,338.868 350.851 C 338.344 354.631,338.179 364.107,338.594 366.617 C 340.211 376.397,343.976 382.042,350.338 384.221 L 351.800 384.722 352.050 388.061 C 352.222 390.360,352.281 389.312,352.238 384.700 C 352.203 381.015,352.316 378.000,352.488 378.000 C 352.659 378.000,352.800 378.180,352.800 378.400 C 352.800 378.620,353.089 378.800,353.443 378.800 C 353.850 378.800,354.001 378.580,353.855 378.200 C 353.729 377.870,353.799 377.600,354.013 377.600 C 354.226 377.600,354.400 377.800,354.400 378.043 C 354.400 378.683,356.114 378.170,357.801 377.025 C 359.514 375.863,361.598 373.690,361.606 373.058 C 361.610 372.806,362.165 371.974,362.840 371.208 C 363.514 370.442,364.312 369.227,364.613 368.508 C 364.913 367.789,365.348 367.200,365.580 367.200 C 365.811 367.200,365.955 367.062,365.900 366.892 C 365.733 366.378,367.541 364.316,367.942 364.564 C 368.148 364.691,368.419 364.526,368.546 364.198 C 368.672 363.869,369.046 363.600,369.378 363.600 C 369.710 363.600,370.276 363.150,370.637 362.600 C 370.997 362.050,371.537 361.600,371.837 361.600 C 372.136 361.600,372.676 361.150,373.037 360.600 C 373.397 360.050,373.911 359.600,374.178 359.600 C 374.446 359.600,374.906 359.150,375.200 358.600 C 375.494 358.050,375.968 357.600,376.254 357.600 C 376.539 357.600,376.988 357.195,377.252 356.700 C 377.517 356.205,378.198 355.314,378.767 354.720 C 380.407 353.007,381.037 352.202,381.845 350.791 C 382.260 350.065,383.005 349.024,383.500 348.477 C 383.995 347.931,384.400 347.239,384.400 346.942 C 384.400 346.644,384.568 346.400,384.773 346.400 C 384.978 346.400,385.274 345.995,385.431 345.500 C 385.588 345.005,386.044 343.833,386.446 342.895 C 386.847 341.957,387.175 341.096,387.174 340.981 C 387.172 340.866,387.448 340.495,387.786 340.157 C 388.124 339.819,388.400 339.276,388.400 338.949 C 388.400 338.623,388.744 337.601,389.164 336.678 C 389.584 335.755,390.158 333.885,390.439 332.523 C 390.721 331.161,391.076 330.124,391.230 330.218 C 391.384 330.313,391.728 328.908,391.996 327.096 C 392.263 325.283,392.595 323.080,392.733 322.200 C 393.093 319.908,393.060 300.126,392.696 299.763 C 391.585 298.652,363.990 299.746,355.754 301.227 L 353.307 301.667 353.054 304.092 C 352.914 305.426,352.800 309.101,352.800 312.259 C 352.800 315.946,352.652 318.000,352.386 318.000 C 352.105 318.000,352.061 314.425,352.249 306.800 C 352.402 300.640,352.408 295.600,352.263 295.600 C 352.118 295.600,351.976 297.805,351.946 300.500 M395.900 299.076 C 395.515 299.176,395.200 299.425,395.200 299.629 C 395.200 300.195,395.986 300.071,396.657 299.400 C 397.265 298.792,397.159 298.747,395.900 299.076 M38.531 302.200 C 38.533 303.740,38.605 304.321,38.692 303.491 C 38.779 302.661,38.777 301.401,38.689 300.691 C 38.600 299.981,38.529 300.660,38.531 302.200 M22.800 301.212 C 18.730 301.610,13.780 302.219,11.800 302.566 C 9.820 302.913,7.618 303.198,6.908 303.199 C 5.067 303.201,5.012 303.621,5.005 317.600 C 5.000 329.049,5.541 337.001,6.365 337.600 C 6.516 337.710,6.934 339.177,7.292 340.861 C 7.651 342.544,8.288 344.704,8.709 345.661 C 9.130 346.617,9.719 348.030,10.020 348.800 C 10.320 349.570,10.799 350.438,11.083 350.729 C 11.367 351.019,11.600 351.517,11.600 351.834 C 11.600 352.406,12.378 354.016,12.841 354.400 C 12.973 354.510,13.398 355.273,13.785 356.096 C 14.204 356.988,14.672 357.488,14.944 357.332 C 15.195 357.189,15.266 357.220,15.102 357.401 C 14.938 357.582,15.253 358.318,15.802 359.038 C 16.351 359.758,16.800 360.539,16.800 360.773 C 16.800 361.008,16.974 361.200,17.186 361.200 C 17.398 361.200,17.999 361.829,18.521 362.598 C 19.043 363.367,19.597 363.870,19.751 363.715 C 19.906 363.561,20.136 363.832,20.263 364.317 C 20.389 364.803,20.737 365.200,21.035 365.200 C 21.332 365.200,21.974 365.738,22.460 366.396 C 22.947 367.054,23.636 367.684,23.992 367.798 C 24.349 367.911,24.868 368.633,25.146 369.402 C 25.424 370.171,25.820 370.800,26.026 370.800 C 26.528 370.800,26.504 370.620,25.770 368.887 C 21.430 358.647,21.146 341.137,25.181 332.516 C 26.475 329.749,27.327 328.813,30.595 326.570 C 33.807 324.364,35.607 324.938,32.766 327.262 C 28.616 330.659,28.207 336.392,31.885 339.621 C 32.995 340.596,33.192 340.954,32.759 341.208 C 26.538 344.860,25.317 350.457,29.728 355.104 L 30.965 356.409 30.089 357.023 C 25.424 360.290,26.593 368.198,32.169 371.086 C 33.179 371.610,33.247 371.742,32.669 372.066 C 31.683 372.617,30.800 374.561,30.800 376.180 C 30.800 376.961,30.620 377.600,30.400 377.600 C 30.180 377.600,30.000 377.960,30.000 378.400 C 30.000 378.840,30.136 379.200,30.302 379.200 C 30.469 379.200,30.844 379.740,31.136 380.400 C 31.428 381.060,31.922 381.600,32.234 381.600 C 32.545 381.600,32.800 381.840,32.800 382.132 C 32.800 382.425,33.295 382.920,33.900 383.232 C 34.505 383.544,35.090 383.906,35.200 384.038 C 35.593 384.508,37.600 384.817,37.600 384.408 C 37.600 384.183,37.915 384.014,38.300 384.032 C 38.685 384.049,38.820 384.138,38.600 384.231 C 38.095 384.442,38.318 390.800,38.830 390.800 C 39.034 390.800,39.200 389.360,39.200 387.600 C 39.200 385.451,39.351 384.400,39.661 384.400 C 40.000 384.400,40.047 385.754,39.840 389.500 C 39.359 398.195,38.828 426.016,38.907 438.400 C 38.960 446.746,39.009 447.858,39.074 442.200 C 39.125 437.800,39.361 424.930,39.598 413.600 L 40.030 393.000 41.315 392.018 C 47.143 387.561,52.874 379.300,55.061 372.200 C 56.629 367.110,55.679 353.981,53.553 351.354 C 52.716 350.320,53.031 346.225,54.121 343.982 C 58.293 335.387,57.333 330.968,49.600 323.187 C 45.094 318.653,44.475 317.959,41.400 313.993 C 39.738 311.849,39.356 311.042,39.140 309.207 C 38.882 307.019,39.086 316.510,39.409 321.700 C 39.538 323.784,39.453 324.400,39.036 324.400 C 38.613 324.400,38.449 322.987,38.282 317.900 C 38.164 314.325,37.984 309.780,37.882 307.800 C 37.780 305.820,37.675 303.345,37.648 302.300 L 37.600 300.400 33.900 300.444 C 31.865 300.468,26.870 300.814,22.800 301.212 M3.144 302.421 C 3.664 302.849,4.384 303.179,4.744 303.154 C 5.305 303.114,5.298 303.081,4.700 302.924 C 4.315 302.824,4.000 302.596,4.000 302.417 C 4.000 302.239,3.595 301.992,3.100 301.867 L 2.200 301.641 3.144 302.421 M359.082 316.900 C 358.987 317.395,358.909 316.990,358.909 316.000 C 358.909 315.010,358.987 314.605,359.082 315.100 C 359.178 315.595,359.178 316.405,359.082 316.900 M364.367 323.936 C 371.796 331.395,371.791 354.788,364.358 367.820 C 362.252 371.511,361.390 372.101,361.303 369.912 C 361.268 369.036,360.870 367.613,360.420 366.748 C 359.399 364.790,359.348 365.028,361.000 364.053 C 365.296 361.518,366.191 356.008,362.989 351.813 C 361.315 349.619,361.316 350.011,362.979 348.195 C 366.580 344.263,365.093 338.088,359.797 334.984 C 359.150 334.604,359.211 334.432,360.497 333.029 C 363.480 329.773,363.489 325.236,360.520 322.087 C 359.794 321.318,359.200 320.620,359.200 320.536 C 359.200 320.003,362.826 322.389,364.367 323.936 M52.287 350.295 C 52.195 350.903,52.117 350.500,52.114 349.400 C 52.111 348.300,52.187 347.803,52.282 348.295 C 52.377 348.786,52.379 349.686,52.287 350.295 M354.100 366.693 C 353.165 366.777,351.635 366.777,350.700 366.693 C 349.765 366.609,350.530 366.540,352.400 366.540 C 354.270 366.540,355.035 366.609,354.100 366.693 M38.700 373.076 C 38.315 373.176,37.685 373.176,37.300 373.076 C 36.915 372.975,37.230 372.893,38.000 372.893 C 38.770 372.893,39.085 372.975,38.700 373.076 M41.905 373.075 C 41.522 373.175,40.802 373.179,40.305 373.083 C 39.807 372.987,40.120 372.905,41.000 372.901 C 41.880 372.896,42.287 372.975,41.905 373.075 M27.292 373.675 C 27.379 373.936,27.664 374.221,27.925 374.308 C 28.218 374.406,28.307 374.223,28.157 373.833 C 27.878 373.106,27.052 372.955,27.292 373.675 M28.400 375.151 C 28.400 375.344,28.656 375.714,28.969 375.974 C 29.435 376.361,29.498 376.298,29.322 375.623 C 29.112 374.819,28.400 374.455,28.400 375.151 M51.887 377.495 C 51.795 378.103,51.717 377.700,51.714 376.600 C 51.711 375.500,51.787 375.003,51.882 375.495 C 51.977 375.986,51.979 376.886,51.887 377.495 M352.893 387.000 C 352.894 389.860,353.032 392.740,353.200 393.400 C 353.625 395.070,353.647 385.450,353.223 383.400 C 352.983 382.242,352.892 383.237,352.893 387.000 M352.567 406.800 C 352.567 411.090,352.626 412.845,352.698 410.700 C 352.770 408.555,352.770 405.045,352.698 402.900 C 352.626 400.755,352.567 402.510,352.567 406.800 M38.304 402.200 C 37.841 404.710,37.922 410.638,38.414 410.146 C 38.664 409.896,38.783 407.934,38.714 405.166 C 38.629 401.761,38.525 401.007,38.304 402.200 M353.748 412.800 C 353.748 415.110,353.814 416.055,353.895 414.900 C 353.976 413.745,353.976 411.855,353.895 410.700 C 353.814 409.545,353.748 410.490,353.748 412.800 M352.963 424.400 C 352.963 428.030,353.023 429.515,353.098 427.700 C 353.172 425.885,353.172 422.915,353.098 421.100 C 353.023 419.285,352.963 420.770,352.963 424.400 M354.006 431.900 C 354.003 433.837,354.165 435.200,354.400 435.200 C 354.916 435.200,354.916 429.998,354.400 429.200 C 354.132 428.786,354.010 429.622,354.006 431.900 M37.859 434.660 C 37.521 438.660,37.580 469.669,37.930 472.000 C 38.078 472.990,38.223 464.305,38.251 452.700 C 38.279 441.095,38.260 431.600,38.209 431.600 C 38.159 431.600,38.001 432.977,37.859 434.660 M353.477 444.800 C 353.593 451.510,353.829 459.160,354.002 461.800 C 354.385 467.643,354.041 449.556,353.577 439.400 C 353.356 434.566,353.327 436.127,353.477 444.800 M354.428 447.500 C 354.411 449.719,354.560 451.200,354.800 451.200 C 355.288 451.200,355.288 445.736,354.800 444.600 C 354.573 444.073,354.447 445.061,354.428 447.500 M38.883 466.400 C 38.841 474.870,38.920 482.745,39.059 483.900 L 39.311 486.000 40.956 485.933 L 42.600 485.866 41.100 485.709 C 40.275 485.622,39.573 485.518,39.539 485.476 C 39.506 485.434,39.361 477.660,39.218 468.200 L 38.958 451.000 38.883 466.400 M354.880 463.000 C 354.880 464.100,355.024 465.450,355.200 466.000 C 355.451 466.784,355.520 466.567,355.520 465.000 C 355.520 463.900,355.376 462.550,355.200 462.000 C 354.949 461.216,354.880 461.433,354.880 463.000 M354.546 474.200 C 354.547 476.400,354.614 477.249,354.695 476.087 C 354.776 474.924,354.776 473.124,354.693 472.087 C 354.611 471.049,354.545 472.000,354.546 474.200 M355.338 477.498 C 355.372 479.093,355.535 480.398,355.700 480.398 C 356.102 480.401,356.031 476.408,355.610 475.400 C 355.395 474.884,355.298 475.630,355.338 477.498 M353.400 479.200 L 352.200 479.505 353.500 479.553 C 354.215 479.579,354.800 479.420,354.800 479.200 C 354.800 478.980,354.755 478.821,354.700 478.847 C 354.645 478.873,354.060 479.032,353.400 479.200 M345.091 480.621 C 340.889 481.329,340.104 481.602,343.000 481.347 C 345.667 481.113,350.774 480.078,349.200 480.090 C 348.650 480.094,346.801 480.333,345.091 480.621 M347.200 481.596 C 347.200 481.813,347.637 481.955,348.171 481.911 C 348.705 481.866,349.055 481.688,348.948 481.515 C 348.666 481.060,347.200 481.127,347.200 481.596 M344.400 482.000 C 344.400 482.220,344.670 482.400,345.000 482.400 C 345.330 482.400,345.600 482.220,345.600 482.000 C 345.600 481.780,345.330 481.600,345.000 481.600 C 344.670 481.600,344.400 481.780,344.400 482.000 M328.270 483.018 C 323.644 483.648,322.282 484.073,326.000 483.727 C 330.361 483.320,335.528 482.502,333.800 482.492 C 332.920 482.487,330.432 482.723,328.270 483.018 M330.800 484.000 C 330.800 484.220,331.160 484.400,331.600 484.400 C 332.040 484.400,332.400 484.220,332.400 484.000 C 332.400 483.780,332.040 483.600,331.600 483.600 C 331.160 483.600,330.800 483.780,330.800 484.000 M319.905 484.283 C 320.402 484.379,321.122 484.375,321.505 484.275 C 321.887 484.175,321.480 484.096,320.600 484.101 C 319.720 484.105,319.407 484.187,319.905 484.283 M327.000 484.400 C 326.684 484.911,328.010 484.911,328.800 484.400 C 329.269 484.097,329.166 484.011,328.324 484.006 C 327.732 484.003,327.136 484.180,327.000 484.400 M314.200 484.627 C 313.760 484.691,310.884 484.968,307.808 485.242 C 304.733 485.515,302.440 485.813,302.712 485.904 C 303.289 486.096,317.688 484.845,317.954 484.579 C 318.142 484.392,315.578 484.424,314.200 484.627 M323.200 484.800 C 322.712 485.115,322.764 485.189,323.476 485.194 C 323.958 485.197,324.464 485.020,324.600 484.800 C 324.915 484.291,323.988 484.291,323.200 484.800 M313.000 486.000 C 312.864 486.220,313.113 486.400,313.553 486.400 C 313.993 486.400,314.464 486.220,314.600 486.000 C 314.736 485.780,314.487 485.600,314.047 485.600 C 313.607 485.600,313.136 485.780,313.000 486.000 M46.291 486.289 C 47.001 486.377,48.261 486.379,49.091 486.292 C 49.921 486.205,49.340 486.133,47.800 486.131 C 46.260 486.129,45.581 486.200,46.291 486.289 M297.705 486.287 C 298.314 486.379,299.214 486.377,299.705 486.282 C 300.197 486.187,299.700 486.111,298.600 486.114 C 297.500 486.117,297.097 486.195,297.705 486.287 M307.800 486.400 C 307.656 486.633,308.063 486.800,308.776 486.800 C 309.449 486.800,310.000 486.620,310.000 486.400 C 310.000 486.180,309.561 486.000,309.024 486.000 C 308.487 486.000,307.936 486.180,307.800 486.400 M39.200 486.800 C 39.200 487.020,39.965 487.187,40.900 487.172 C 42.217 487.150,42.420 487.066,41.800 486.800 C 40.684 486.321,39.200 486.321,39.200 486.800 M56.713 486.695 C 57.876 486.776,59.676 486.776,60.713 486.693 C 61.751 486.611,60.800 486.545,58.600 486.546 C 56.400 486.547,55.551 486.614,56.713 486.695 M290.291 486.689 C 291.001 486.777,292.261 486.779,293.091 486.692 C 293.921 486.605,293.340 486.533,291.800 486.531 C 290.260 486.529,289.581 486.600,290.291 486.689 M302.600 486.800 C 302.460 487.027,302.796 487.200,303.376 487.200 C 303.939 487.200,304.400 487.020,304.400 486.800 C 304.400 486.580,304.051 486.400,303.624 486.400 C 303.197 486.400,302.736 486.580,302.600 486.800 M49.200 487.200 C 49.530 487.413,50.610 487.569,51.600 487.547 C 53.242 487.509,53.294 487.478,52.200 487.200 C 50.337 486.726,48.467 486.726,49.200 487.200 M68.800 487.193 C 71.550 487.367,78.480 487.605,84.200 487.722 C 92.129 487.885,93.127 487.860,88.400 487.615 C 84.990 487.439,78.060 487.200,73.000 487.086 C 66.401 486.936,65.214 486.966,68.800 487.193 M275.000 487.434 L 267.400 487.937 274.800 487.719 C 278.870 487.600,283.730 487.372,285.600 487.213 L 289.000 486.924 285.800 486.928 C 284.040 486.930,279.180 487.158,275.000 487.434 M295.800 487.200 L 294.600 487.505 296.000 487.547 C 296.770 487.569,297.670 487.413,298.000 487.200 C 298.739 486.723,297.676 486.723,295.800 487.200 M61.507 487.890 C 62.226 487.979,63.306 487.977,63.907 487.886 C 64.508 487.795,63.920 487.722,62.600 487.724 C 61.280 487.726,60.788 487.801,61.507 487.890 M288.705 487.883 C 289.202 487.979,289.922 487.975,290.305 487.875 C 290.687 487.775,290.280 487.696,289.400 487.701 C 288.520 487.705,288.207 487.787,288.705 487.883 M72.600 488.400 C 72.736 488.620,73.747 488.800,74.847 488.800 C 76.079 488.800,76.752 488.646,76.600 488.400 C 76.464 488.180,75.453 488.000,74.353 488.000 C 73.121 488.000,72.448 488.154,72.600 488.400 M97.900 488.295 C 99.055 488.376,100.945 488.376,102.100 488.295 C 103.255 488.214,102.310 488.148,100.000 488.148 C 97.690 488.148,96.745 488.214,97.900 488.295 M262.300 488.293 C 263.235 488.377,264.765 488.377,265.700 488.293 C 266.635 488.209,265.870 488.140,264.000 488.140 C 262.130 488.140,261.365 488.209,262.300 488.293 M280.200 488.400 C 280.053 488.638,280.521 488.800,281.353 488.800 C 282.123 488.800,282.864 488.620,283.000 488.400 C 283.147 488.162,282.679 488.000,281.847 488.000 C 281.077 488.000,280.336 488.180,280.200 488.400 M84.400 488.800 C 85.799 489.248,91.642 489.248,90.600 488.800 C 90.160 488.611,88.360 488.462,86.600 488.468 C 84.418 488.476,83.718 488.582,84.400 488.800 M112.500 488.697 C 114.205 488.772,116.995 488.772,118.700 488.697 C 120.405 488.622,119.010 488.561,115.600 488.561 C 112.190 488.561,110.795 488.622,112.500 488.697 M249.500 488.696 C 250.875 488.774,253.125 488.774,254.500 488.696 C 255.875 488.618,254.750 488.554,252.000 488.554 C 249.250 488.554,248.125 488.618,249.500 488.696 M270.200 488.800 C 269.643 489.039,270.221 489.152,272.100 489.172 C 273.652 489.188,274.800 489.030,274.800 488.800 C 274.800 488.317,271.324 488.317,270.200 488.800 M101.400 489.200 C 101.840 489.389,103.280 489.532,104.600 489.518 L 107.000 489.493 105.000 489.182 C 102.143 488.737,100.343 488.746,101.400 489.200 M137.600 489.297 C 151.661 489.690,223.383 489.698,234.800 489.308 C 240.165 489.124,220.212 489.000,185.400 489.000 C 150.769 489.000,131.314 489.121,137.600 489.297 M260.200 489.200 L 258.600 489.486 260.400 489.537 C 261.390 489.565,262.470 489.413,262.800 489.200 C 263.513 488.739,262.772 488.739,260.200 489.200 M121.100 489.893 C 122.035 489.977,123.565 489.977,124.500 489.893 C 125.435 489.809,124.670 489.740,122.800 489.740 C 120.930 489.740,120.165 489.809,121.100 489.893 M245.491 489.889 C 246.201 489.977,247.461 489.979,248.291 489.892 C 249.121 489.805,248.540 489.733,247.000 489.731 C 245.460 489.729,244.781 489.800,245.491 489.889 M145.717 490.297 C 147.211 490.374,149.551 490.374,150.917 490.296 C 152.282 490.218,151.060 490.155,148.200 490.155 C 145.340 490.156,144.222 490.220,145.717 490.297 M223.700 490.296 C 224.965 490.375,227.035 490.375,228.300 490.296 C 229.565 490.216,228.530 490.151,226.000 490.151 C 223.470 490.151,222.435 490.216,223.700 490.296 " stroke="none" fill="#c4c8cf" fill-rule="evenodd"></path><path id="path4" d="M279.728 99.600 C 279.728 101.030,279.801 101.615,279.889 100.900 C 279.978 100.185,279.978 99.015,279.889 98.300 C 279.801 97.585,279.728 98.170,279.728 99.600 M251.800 201.999 C 251.360 202.188,250.484 202.455,249.853 202.591 C 249.222 202.727,248.795 202.928,248.904 203.037 C 249.214 203.347,252.800 202.348,252.800 201.953 C 252.800 201.549,252.851 201.546,251.800 201.999 M138.993 203.212 C 138.695 203.693,140.004 204.038,140.684 203.657 C 141.173 203.383,141.081 203.271,140.240 203.110 C 139.658 202.998,139.096 203.044,138.993 203.212 M244.907 203.487 C 245.516 203.579,245.930 203.790,245.828 203.955 C 245.726 204.120,246.218 204.166,246.921 204.057 C 248.499 203.812,247.110 203.265,245.000 203.300 C 243.803 203.320,243.802 203.320,244.907 203.487 M150.400 206.400 C 150.400 206.620,150.805 206.797,151.300 206.794 C 152.028 206.789,152.085 206.714,151.600 206.400 C 150.824 205.899,150.400 205.899,150.400 206.400 M159.600 208.001 C 159.600 208.151,160.440 208.286,161.467 208.302 C 162.685 208.320,163.137 208.208,162.769 207.981 C 162.118 207.579,159.600 207.595,159.600 208.001 M214.200 208.000 C 213.496 208.302,213.535 208.347,214.524 208.372 C 215.176 208.388,215.544 208.232,215.400 208.000 C 215.264 207.780,215.118 207.613,215.076 207.628 C 215.034 207.644,214.640 207.811,214.200 208.000 M209.100 208.689 C 209.815 208.778,210.985 208.778,211.700 208.689 C 212.415 208.601,211.830 208.528,210.400 208.528 C 208.970 208.528,208.385 208.601,209.100 208.689 M181.300 209.087 C 181.905 209.178,182.895 209.178,183.500 209.087 C 184.105 208.995,183.610 208.920,182.400 208.920 C 181.190 208.920,180.695 208.995,181.300 209.087 M185.700 209.087 C 186.305 209.178,187.295 209.178,187.900 209.087 C 188.505 208.995,188.010 208.920,186.800 208.920 C 185.590 208.920,185.095 208.995,185.700 209.087 M194.100 209.076 C 194.485 209.176,195.115 209.176,195.500 209.076 C 195.885 208.975,195.570 208.893,194.800 208.893 C 194.030 208.893,193.715 208.975,194.100 209.076 M177.275 242.390 C 172.764 244.043,167.600 249.592,167.600 252.787 C 167.600 253.063,172.368 253.200,182.000 253.200 L 196.400 253.200 196.396 252.300 C 196.369 245.792,184.616 239.700,177.275 242.390 M225.299 247.733 C 222.871 248.614,220.601 251.507,221.367 252.746 C 221.590 253.108,254.365 252.968,254.729 252.604 C 255.358 251.975,252.941 248.700,251.172 247.786 C 249.698 247.023,227.380 246.978,225.299 247.733 " stroke="none" fill="#ae4543" fill-rule="evenodd"></path></g></svg>